<svg width="243" height="55" fill="none" xmlns="http://www.w3.org/2000/svg"><path d="M55.602 21.39l-.01-1.352 1.275-.277 4.76-13.462h3.17l4.751 13.462 1.373.277v1.353h-6.41v-1.353l1.61-.277-.74-2.41h-5.364l-.701 2.42 1.63.267v1.353h-5.344zM62.3 9.44l-1.837 6.37h4.444L62.96 9.44l-.345-1.442-.316 1.442zm9.032 10.558h1.096a1.58 1.58 0 00.415-.217c.158-.106.312-.274.464-.504.158-.23.31-.537.454-.919.152-.388.283-.885.395-1.491.119-.612.21-1.347.277-2.203.072-.862.108-1.88.108-3.051l-1.906-.287v-1.254h11.21v1.254l-1.758.287v8.385h1.423v.02l.474-.02c0 .066-.014.237-.04.514-.026.276-.06.605-.099.987-.033.382-.075.79-.128 1.225-.046.435-.092.84-.138 1.215-.04.382-.08.704-.119.968-.033.27-.056.428-.069.474h-1.748a9.822 9.822 0 00-.05-.474 36.05 36.05 0 00-.098-.741 76.15 76.15 0 00-.228-1.689 14.675 14.675 0 00-.118-.691 2.708 2.708 0 00-.099-.386l.01-.01h-7.18a2.522 2.522 0 00-.129.376c-.046.184-.099.398-.158.642a1010.708 1010.708 0 00-.345 1.64c-.053.276-.103.53-.149.76-.046.237-.082.428-.108.573h-1.906c0-.092.003-.26.01-.504a175.06 175.06 0 00.079-1.896l.059-1.116c.02-.362.036-.708.05-1.037l.049-.83zm4.81-7.477c0 .863-.037 1.69-.11 2.48-.072.79-.17 1.51-.296 2.162a13.304 13.304 0 01-.414 1.709c-.158.48-.326.856-.504 1.126h4.287v-8.514H76.14v1.037zm9.555 8.87v-1.324l1.333-.237v-8.227l-1.333-.277v-1.254h2.143c.29 0 .616-.013.978-.04.369-.026.74-.056 1.116-.089a81.11 81.11 0 011.086-.088c.356-.027.669-.04.939-.04.974 0 1.767.072 2.38.217.612.139 1.09.33 1.432.573.349.244.586.53.711.86.132.322.198.665.198 1.027 0 .612-.188 1.162-.563 1.649-.369.48-.902.843-1.6 1.086.5.04.941.142 1.323.307.389.164.711.365.968.602.263.237.461.5.593.79.138.29.207.583.207.88 0 .546-.089 1.053-.267 1.52-.177.461-.484.86-.918 1.195-.435.336-1.017.6-1.748.79-.725.192-1.637.287-2.736.287-.237 0-.54-.013-.909-.04-.369-.02-.754-.042-1.155-.069-.395-.02-.787-.042-1.176-.069-.382-.02-.71-.03-.987-.03h-2.015zm4.197-6.588h1.61c.441 0 .797-.06 1.067-.178.277-.125.49-.286.642-.484.151-.197.253-.425.306-.681.053-.257.08-.514.08-.77 0-.185-.027-.37-.08-.554a1.093 1.093 0 00-.306-.494c-.145-.151-.352-.273-.622-.365-.27-.092-.62-.138-1.047-.138-.31 0-.603.016-.88.049-.276.033-.533.056-.77.069v3.546zm0 5.175c.066.027.178.056.336.09a22.02 22.02 0 001.067.147c.184.014.326.02.424.02.494 0 .906-.046 1.235-.138.33-.099.59-.234.78-.405.191-.171.326-.379.405-.622.08-.25.119-.524.119-.82 0-.685-.184-1.212-.553-1.58-.369-.376-.978-.564-1.827-.564h-1.986v3.872zm9.635-4.178c0-1 .154-1.873.464-2.617.309-.744.721-1.363 1.234-1.857a5.002 5.002 0 011.778-1.106 6.205 6.205 0 012.114-.365c.856 0 1.613.134 2.271.404a4.362 4.362 0 011.66 1.146c.448.5.787 1.11 1.017 1.827.231.718.346 1.531.346 2.44 0 1.027-.155 1.916-.464 2.667-.31.75-.721 1.37-1.235 1.857a5.01 5.01 0 01-1.778 1.076 6.434 6.434 0 01-2.104.346c-.856 0-1.613-.132-2.271-.395a4.541 4.541 0 01-1.669-1.156c-.448-.5-.787-1.11-1.018-1.827-.23-.718-.345-1.531-.345-2.44zM105 20.255c.362 0 .675-.08.939-.237.263-.165.48-.418.651-.76.178-.35.307-.794.386-1.334.085-.54.128-1.185.128-1.936 0-.77-.039-1.452-.118-2.044-.073-.6-.195-1.1-.366-1.502-.165-.401-.385-.704-.662-.908-.27-.211-.602-.317-.997-.317a1.79 1.79 0 00-.948.247c-.264.159-.484.412-.662.76-.178.343-.31.784-.395 1.324-.086.54-.129 1.186-.129 1.936 0 .77.04 1.455.119 2.055.079.592.204 1.09.375 1.491.178.402.402.708.672.919.276.204.612.306 1.007.306zm17.24 1.136c-.297 0-.57-.129-.82-.386a5.094 5.094 0 01-.701-.967 23.582 23.582 0 01-.652-1.255 15.11 15.11 0 00-.682-1.254 4.362 4.362 0 00-.78-.968c-.277-.257-.586-.385-.928-.385h-.83v3.694l1.62.197v1.324h-5.907v-1.324l1.324-.197v-8.257l-1.294-.287v-1.254h5.679v1.254l-1.422.287v3.269h1.975l2.045-3.28-1.413-.276v-1.254h5.314v1.254l-1.59.277-2.637 3.536c.323.164.619.388.889.671.27.277.517.583.741.919.23.329.441.668.632 1.017.191.343.372.659.543.948.178.29.346.537.504.741.158.204.316.332.474.385l.918.247v1.324h-3.002zm4.113-3.003c0-.487.085-.919.257-1.294.177-.375.418-.704.721-.988a4.384 4.384 0 011.086-.72 7.55 7.55 0 011.343-.484 9.927 9.927 0 011.502-.287c.52-.06 1.04-.095 1.56-.108v-.475c0-.75-.155-1.284-.464-1.6-.303-.322-.803-.484-1.501-.484-.356 0-.715.03-1.077.09a9.738 9.738 0 00-1.027.207 7.968 7.968 0 00-.919.276 8.432 8.432 0 00-.711.287h-.01l-.582-1.324c.138-.112.372-.257.701-.434a8.477 8.477 0 011.185-.534 11.8 11.8 0 011.531-.444 7.902 7.902 0 011.728-.188c.731 0 1.35.08 1.857.237.514.158.929.402 1.245.731.322.33.556.747.701 1.254.151.5.227 1.094.227 1.778v6.163h1.225v1.215c-.125.027-.28.063-.464.109-.185.04-.389.076-.613.109-.224.039-.464.072-.721.098-.257.027-.52.04-.79.04-.237 0-.441-.01-.612-.03a.891.891 0 01-.405-.138.62.62 0 01-.217-.306 1.768 1.768 0 01-.07-.553v-.573a3.984 3.984 0 01-1.185 1.027c-.276.165-.592.3-.948.405a3.9 3.9 0 01-1.175.168 4.46 4.46 0 01-1.314-.188 3.001 3.001 0 01-1.077-.583 2.796 2.796 0 01-.721-1.007c-.177-.408-.266-.892-.266-1.452zm4.691 1.324c.119 0 .254-.017.405-.05a3.76 3.76 0 00.474-.138c.165-.06.326-.129.484-.207.158-.086.297-.182.415-.287v-3.27c-.639 0-1.175.06-1.61.179-.428.118-.77.276-1.027.474a1.738 1.738 0 00-.553.681c-.105.257-.158.53-.158.82 0 .586.132 1.034.395 1.343.27.303.662.455 1.175.455zm9.476 1.679v-1.324l2.361-.247v-8.425l-2.163.178-.563 2.993h-1.778l.099-4.494h11.753l.099 4.494h-1.778l-.602-2.993-2.055-.178v8.425l2.41.247v1.324h-7.783zm18.499 0v-1.353l1.837-.188V7.998l-1.828-.316V6.358h11.24l.208 4.02h-1.847l-.662-2.42-3.99-.158v4.909a5.68 5.68 0 01.444-.08c.191-.025.399-.048.622-.068.224-.027.458-.046.702-.06.25-.02.493-.03.731-.03.816 0 1.547.1 2.192.297.652.191 1.202.471 1.65.84.454.368.8.82 1.037 1.353.243.533.365 1.139.365 1.817 0 .77-.132 1.455-.395 2.055a4.11 4.11 0 01-1.106 1.49 4.91 4.91 0 01-1.699.92 7.182 7.182 0 01-2.153.306 32.017 32.017 0 01-1.027-.04l-.761-.04-.79-.039a33.724 33.724 0 00-1.264-.04h-3.506zm6.568-7.447c-.369 0-.679.006-.929.02a4.88 4.88 0 00-.681.078v5.936c.177.053.375.099.592.138.224.033.534.05.929.05.533 0 .987-.08 1.363-.237.382-.158.691-.379.928-.662.237-.29.408-.629.514-1.017.112-.395.168-.823.168-1.284 0-1.067-.247-1.837-.741-2.311s-1.208-.711-2.143-.711zm13.278 7.674c-.928 0-1.728-.145-2.4-.435a4.443 4.443 0 01-1.649-1.205 5.058 5.058 0 01-.948-1.857 8.574 8.574 0 01-.306-2.35c0-.922.128-1.745.385-2.47.263-.73.632-1.35 1.106-1.856a4.7 4.7 0 011.709-1.176c.665-.27 1.402-.405 2.212-.405 2.733 0 4.158 1.334 4.277 4 .013.455.01.866-.01 1.235a5.464 5.464 0 01-.099.919h-6.45c.033.651.129 1.208.287 1.669.158.46.365.836.622 1.126.257.29.56.5.909.632a3.32 3.32 0 001.165.197c.336 0 .649-.026.939-.079a6.12 6.12 0 00.8-.197c.25-.08.474-.168.671-.267a5.26 5.26 0 00.524-.286l.513 1.195a3.875 3.875 0 01-.691.543c-.29.184-.626.356-1.008.514-.375.158-.783.29-1.224.395a5.646 5.646 0 01-1.334.158zm-.266-10.43c-.257 0-.497.046-.721.138-.218.092-.412.267-.583.524-.165.256-.303.615-.415 1.076-.105.454-.171 1.044-.197 1.768h3.545v-.138c.007-.06.01-.122.01-.188.007-.066.01-.128.01-.187v-.129c0-.336-.023-.675-.069-1.017a3.195 3.195 0 00-.257-.929 1.68 1.68 0 00-.504-.661c-.21-.171-.483-.257-.819-.257zm7.718.138v-1.254h10.963v1.333l-1.758.336v8.129l1.659.197v1.324h-6.192v-1.324l1.481-.197v-8.317h-2.815v1.037c0 .89-.036 1.732-.108 2.529-.073.79-.168 1.511-.287 2.163a14.425 14.425 0 01-.405 1.709c-.151.48-.303.859-.454 1.135a3.232 3.232 0 01-.336.563 2.338 2.338 0 01-.464.455 2.203 2.203 0 01-.613.296c-.223.072-.48.109-.77.109-.105 0-.244-.01-.415-.03a6.356 6.356 0 01-.494-.06 5.068 5.068 0 01-.434-.068.87.87 0 01-.227-.08l.227-2.172c.033.02.118.05.257.089l.454.108c.171.04.336.073.494.099.158.026.27.04.336.04.25 0 .48-.211.691-.633.211-.428.395-1 .553-1.718.158-.724.28-1.56.366-2.509.092-.948.138-1.949.138-3.002l-1.847-.287zm12.212 10.065v-1.324l.751-.247c.309-.072.579-.227.809-.464.231-.244.442-.517.633-.82.191-.31.372-.625.543-.948a4.87 4.87 0 01.553-.84c-.817-.25-1.409-.655-1.778-1.214-.362-.567-.543-1.265-.543-2.094 0-.54.118-1.024.355-1.452a3.22 3.22 0 011.008-1.106c.441-.303.971-.534 1.59-.692a8.278 8.278 0 012.104-.247c.303 0 .665.007 1.086.02.428.013.856.03 1.284.05.435.013.84.026 1.215.04.382.012.678.019.889.019h1.906v1.284l-1.373.257v8.207l1.432.247v1.324h-5.975v-1.324l1.57-.247v-2.795l-2.222-.01a3.172 3.172 0 00-.464.741c-.138.296-.27.606-.395.928a53.43 53.43 0 00-.346.968 7.86 7.86 0 01-.336.87c-.112.256-.23.467-.355.632-.125.158-.264.237-.415.237h-3.526zm6.499-5.798h1.254c.132 0 .234-.003.306-.01v-4.188a15.973 15.973 0 01-.592-.069 8.718 8.718 0 00-1.067-.05c-.257 0-.517.024-.78.07-.264.04-.504.125-.721.257a1.412 1.412 0 00-.514.543c-.131.237-.197.553-.197.948 0 .336.036.655.108.958.079.296.208.56.386.79.184.23.424.415.721.553.296.132.661.198 1.096.198zm13.368 6.025c-.929 0-1.729-.145-2.401-.435a4.451 4.451 0 01-1.649-1.205 5.058 5.058 0 01-.948-1.857 8.574 8.574 0 01-.306-2.35c0-.922.128-1.745.385-2.47.263-.73.632-1.35 1.106-1.856a4.7 4.7 0 011.709-1.176c.665-.27 1.402-.405 2.212-.405 2.733 0 4.158 1.334 4.277 4 .013.455.01.866-.01 1.235a5.464 5.464 0 01-.099.919h-6.449c.033.651.128 1.208.286 1.669.158.46.366.836.622 1.126.257.29.56.5.909.632.356.132.744.197 1.165.197.336 0 .649-.026.939-.079a6.12 6.12 0 00.8-.197c.25-.08.474-.168.671-.267a5.26 5.26 0 00.524-.286l.513 1.195a3.875 3.875 0 01-.691.543 6.52 6.52 0 01-1.007.514c-.376.158-.784.29-1.225.395a5.643 5.643 0 01-1.333.158zm-.267-10.43c-.257 0-.497.046-.721.138-.217.092-.412.267-.583.524-.164.256-.303.615-.415 1.076-.105.454-.171 1.044-.197 1.768h3.546v-.138a1.88 1.88 0 00.009-.188c.007-.066.01-.128.01-.187v-.129c0-.336-.023-.675-.069-1.017a3.195 3.195 0 00-.257-.929 1.688 1.688 0 00-.503-.661c-.211-.171-.484-.257-.82-.257zm6.888 10.203v-1.324l1.334-.237v-8.227l-1.334-.277v-1.254h2.144c.289 0 .615-.013.977-.04.369-.026.741-.056 1.116-.089.376-.033.738-.062 1.087-.088.356-.027.668-.04.938-.04.975 0 1.768.072 2.381.217.612.139 1.089.33 1.432.573.349.244.586.53.711.86.132.322.197.665.197 1.027a2.63 2.63 0 01-.563 1.649c-.368.48-.902.843-1.6 1.086.501.04.942.142 1.324.307.388.164.711.365.968.602.263.237.461.5.592.79.139.29.208.583.208.88a4.24 4.24 0 01-.267 1.52c-.178.461-.484.86-.918 1.195-.435.336-1.018.6-1.749.79-.724.192-1.636.287-2.736.287-.237 0-.539-.013-.908-.04-.369-.02-.754-.042-1.156-.069a66.93 66.93 0 01-1.175-.069 19.26 19.26 0 00-.988-.03h-2.015zm4.198-6.588h1.61c.441 0 .797-.06 1.067-.178.276-.125.49-.286.642-.484.151-.197.253-.425.306-.681.052-.257.079-.514.079-.77a2.03 2.03 0 00-.079-.554 1.1 1.1 0 00-.306-.494c-.145-.151-.353-.273-.623-.365-.27-.092-.619-.138-1.047-.138a7.46 7.46 0 00-.879.049c-.276.033-.533.056-.77.069v3.546zm0 5.175c.066.027.178.056.336.09a22.11 22.11 0 001.066.147c.185.014.326.02.425.02.494 0 .906-.046 1.235-.138.329-.099.589-.234.78-.405.191-.171.326-.379.405-.622a2.71 2.71 0 00.119-.82c0-.685-.185-1.212-.554-1.58-.368-.376-.977-.564-1.827-.564h-1.985v3.872zM55.602 49.391l-.01-1.353 1.275-.277 4.76-13.462h3.17l4.751 13.462 1.373.276v1.354h-6.41v-1.353l1.61-.277-.74-2.41h-5.364l-.701 2.42 1.63.267v1.353h-5.344zM62.3 37.44l-1.837 6.37h4.444l-1.946-6.37-.345-1.442-.316 1.442zm9.535 11.95v-1.323l1.334-.188v-8.276l-1.334-.277v-1.254h5.758v1.254l-1.442.277v3.19h4.741v-3.18l-1.442-.287v-1.254h5.729v1.254l-1.314.277v8.267l1.343.197v1.324H79.42v-1.324l1.471-.197v-3.625h-4.74v3.625l1.471.197v1.324h-5.788zm15.254-1.392h1.097c.125-.04.263-.112.415-.217.157-.106.312-.274.464-.504.158-.23.31-.537.454-.919.151-.388.283-.885.395-1.491.119-.612.21-1.346.277-2.203.072-.862.108-1.88.108-3.051l-1.906-.287v-1.254h11.21v1.254l-1.758.287v8.385h1.422v.02l.474-.02c0 .066-.013.237-.039.514-.026.276-.06.605-.099.987-.033.382-.076.79-.128 1.225-.046.435-.092.84-.139 1.215-.039.382-.078.704-.118.968a5.25 5.25 0 01-.07.474H97.4a9.99 9.99 0 00-.05-.474 31.292 31.292 0 00-.099-.741 76.073 76.073 0 00-.227-1.689c-.04-.263-.079-.494-.118-.691a2.737 2.737 0 00-.099-.386l.01-.01h-7.18a2.547 2.547 0 00-.129.376c-.046.184-.099.398-.158.642l-.168.8c-.06.29-.118.57-.178.84-.052.276-.102.53-.148.76-.046.237-.082.428-.108.573H86.84c0-.092.004-.26.01-.504.013-.237.027-.52.04-.85l.04-1.046.059-1.116c.02-.362.036-.708.049-1.037l.05-.83zm4.81-7.477c0 .863-.036 1.69-.108 2.48a22.55 22.55 0 01-.297 2.162 13.303 13.303 0 01-.414 1.709c-.158.48-.326.856-.504 1.126h4.286v-8.514h-2.963v1.037zm9.299 12.514l1.481-.247V40.274l-1.343-.415v-1.49l3.536-.485h.049l.504.425v1.047c.165-.191.359-.376.583-.553a3.98 3.98 0 01.75-.484c.277-.139.58-.25.909-.336a4.23 4.23 0 011.067-.128c.606 0 1.172.102 1.699.306.533.204.997.53 1.392.977.395.442.705 1.015.929 1.72.23.704.345 1.553.345 2.547 0 .876-.135 1.692-.405 2.45a5.787 5.787 0 01-1.145 1.965 5.379 5.379 0 01-1.828 1.324c-.717.316-1.527.474-2.429.474-.165 0-.33-.007-.494-.02a9.939 9.939 0 01-.859-.109 3.037 3.037 0 01-.287-.059l.059 1.64v1.718l1.956.247v1.255h-6.469v-1.255zm6.281-13.383a2.46 2.46 0 00-1.056.217c-.31.139-.547.297-.712.474v7.477c.112.125.293.237.544.336.25.092.553.138.908.138.356 0 .692-.075 1.008-.227.322-.158.602-.415.839-.77.237-.356.428-.823.573-1.403.145-.58.224-1.29.237-2.133.013-.744-.036-1.376-.148-1.897-.105-.52-.26-.944-.464-1.274-.204-.329-.455-.566-.751-.71a2.077 2.077 0 00-.978-.228zm12.924 9.966c-.929 0-1.729-.145-2.4-.435a4.447 4.447 0 01-1.65-1.205 5.058 5.058 0 01-.948-1.857 8.574 8.574 0 01-.306-2.35c0-.922.128-1.745.385-2.47.263-.73.632-1.35 1.106-1.856a4.7 4.7 0 011.709-1.176c.665-.27 1.402-.405 2.212-.405 2.733 0 4.158 1.334 4.277 4 .013.455.01.866-.01 1.235a5.464 5.464 0 01-.099.919h-6.449c.033.651.128 1.208.286 1.669.158.46.366.836.622 1.126.257.29.56.5.909.632.356.132.744.197 1.165.197.336 0 .649-.026.939-.079a6.19 6.19 0 00.8-.197c.25-.08.474-.168.671-.267a5.15 5.15 0 00.524-.286l.513 1.195a3.875 3.875 0 01-.691.543 6.52 6.52 0 01-1.007.514c-.376.158-.784.29-1.225.395a5.643 5.643 0 01-1.333.158zm-.267-10.43c-.257 0-.497.046-.721.138-.217.092-.412.267-.583.524-.164.256-.303.615-.415 1.076-.105.454-.171 1.044-.197 1.768h3.546v-.138a1.88 1.88 0 00.009-.188c.007-.066.01-.128.01-.187v-.129c0-.336-.023-.675-.069-1.017a3.164 3.164 0 00-.257-.929 1.688 1.688 0 00-.503-.661c-.211-.172-.484-.257-.82-.257zm6.898 10.203v-1.324l1.324-.197v-8.247l-1.294-.297v-1.254h5.738v1.264l-1.452.277v6.992l1.057-1.876 4.702-6.657h3.792v1.264l-1.284.277v8.267l1.373.197v1.314h-5.797v-1.314l1.432-.267v-7.022l-.939 1.679-4.839 6.924h-3.813zm7.23-12.949a5.258 5.258 0 01-1.728-.267 3.804 3.804 0 01-1.304-.74 3.294 3.294 0 01-.82-1.146 3.712 3.712 0 01-.286-1.472v-.247c.006-.111.013-.194.019-.246h2.045c.079 0 .142.032.188.098a.56.56 0 01.098.237c.027.093.043.195.05.306.013.106.02.208.02.307 0 .243.032.48.098.71.066.225.168.425.306.603.145.172.326.31.544.415.217.105.477.158.78.158.303 0 .56-.053.77-.158.218-.105.392-.243.524-.415.138-.178.237-.378.296-.602a2.57 2.57 0 00.099-.711c0-.1.003-.201.01-.306.013-.112.029-.215.049-.307a.673.673 0 01.109-.237.216.216 0 01.187-.098h2.045a2.1 2.1 0 01.01.246 3.844 3.844 0 01-.267 1.729 3.143 3.143 0 01-.79 1.146 3.69 3.69 0 01-1.294.74c-.507.171-1.093.257-1.758.257zm22.459-.76l-1.729.296-.01 9.096 1.028-1.886 5.215-6.855v-.355l-1.6-.296v-1.324h6.301v1.324l-1.58.296V47.76l1.629.276v1.354h-6.38v-1.353l1.63-.277.009-9.235-.987 1.966-5.255 6.686v.583l1.689.276v1.354h-6.42v-1.353l1.61-.277V35.988l-1.58-.306v-1.324h6.43v1.324zm12.4 3.644v-1.254h10.963v1.333l-1.758.336v8.129l1.659.197v1.324h-6.193v-1.324l1.482-.197v-8.317h-2.815v1.037c0 .89-.036 1.732-.109 2.529-.072.79-.168 1.511-.286 2.163a14.83 14.83 0 01-.405 1.709c-.152.48-.303.859-.454 1.135a3.362 3.362 0 01-.336.563 2.344 2.344 0 01-.465.455 2.183 2.183 0 01-.612.296 2.504 2.504 0 01-.77.109 3.73 3.73 0 01-.415-.03 6.298 6.298 0 01-.494-.06 5.096 5.096 0 01-.435-.068.886.886 0 01-.227-.08l.227-2.172c.033.02.119.05.257.089l.455.108c.171.04.335.073.493.099.158.026.27.04.336.04.25 0 .481-.211.692-.633.21-.428.395-1 .553-1.718.158-.724.28-1.56.365-2.509.092-.948.138-1.949.138-3.002l-1.846-.287zm15.54 10.065h-2.756v-1.265l1.482-.256v-8.257l-1.432-.257v-1.284h6.133v1.284l-1.718.257v3.16a3.37 3.37 0 01.405-.079c.184-.033.385-.062.602-.089.217-.026.441-.05.672-.069.23-.02.444-.03.642-.03.81 0 1.498.076 2.064.228.566.145 1.027.362 1.383.651.355.29.612.65.77 1.077.165.421.247.909.247 1.462 0 1.277-.402 2.206-1.205 2.785-.797.58-1.962.87-3.496.87-.152 0-.399-.01-.741-.03-.342-.02-.708-.043-1.096-.07-.389-.02-.764-.039-1.126-.059-.362-.02-.639-.03-.83-.03zm3.141-5.363a4.594 4.594 0 00-1.432.217v3.773c.151.046.332.085.543.118.211.033.5.05.869.05.823 0 1.413-.175 1.768-.524.356-.355.533-.872.533-1.55 0-.395-.049-.725-.148-.988a1.456 1.456 0 00-.434-.642 1.635 1.635 0 00-.711-.346 4.015 4.015 0 00-.988-.108zm7.056 5.363v-1.324l1.324-.197v-8.247l-1.294-.297v-1.254h5.738v1.264l-1.452.277v6.992l1.057-1.876 4.702-6.657h3.792v1.264l-1.284.277v8.267l1.373.197v1.314h-5.797v-1.314l1.432-.267v-7.022l-.939 1.679-4.839 6.924h-3.813zm20.667-3.783c-.639 0-1.192-.073-1.659-.217a2.527 2.527 0 01-1.156-.721c-.296-.343-.517-.79-.662-1.344-.145-.56-.217-1.25-.217-2.074v-1.64l-1.195-.286v-1.254h5.551v1.254l-1.255.287v1.116c0 .684.023 1.244.069 1.679.047.428.135.764.267 1.007.132.244.313.412.543.504.237.086.547.128.929.128a12.65 12.65 0 001.511-.109c.25-.032.477-.075.681-.128a2.01 2.01 0 00.465-.168v-4.04l-1.492-.276v-1.254h5.778v1.254l-1.304.287v8.207l1.334.247v1.324h-6.045v-1.324l1.729-.257v-2.844a8.573 8.573 0 01-1.66.474c-.619.112-1.356.168-2.212.168zM15.373 9.615c0-.894.725-1.618 1.618-1.618h12.946c.894 0 1.618.724 1.618 1.618V24.18H15.373V9.615z" fill="#CFAC68"/><path d="M29.937 23.37h14.564c.894 0 1.618.724 1.618 1.618v12.946c0 .894-.724 1.618-1.618 1.618H29.937V23.37z" fill="#CFAC68"/><path d="M15.373 37.934h16.182v14.564c0 .894-.724 1.618-1.618 1.618H16.991a1.618 1.618 0 01-1.618-1.618V37.934z" fill="#CFAC68"/><path d="M0 24.988c0-.894.725-1.618 1.618-1.618h14.564v16.182H1.618A1.618 1.618 0 010 37.934V24.988z" fill="#CFAC68"/><path d="M2.157 36.37l-.007-.782.917-.2 3.606-9.934h1.614l3.513 9.942.91.192v.782H8.856v-.782l1.16-.2-.67-2.069H5.109l-.668 2.07 1.202.199v.782H2.157zm4.772-8.662l-1.522 4.708h3.64l-1.514-4.708-.298-1.152-.306 1.152zm29.004 8.662h-2.361v-.782l1.507-.178v-8.89l-1.493-.191v-.782h7.929l.15 2.688h-1.053L40.1 26.47l-3.406-.071v3.577c.08-.02.184-.038.313-.057a8.49 8.49 0 01.433-.05c.157-.019.32-.033.49-.043.176-.014.35-.02.52-.02.588 0 1.11.073 1.564.22.46.142.847.348 1.16.618.313.27.55.602.71.996.167.393.25.839.25 1.337 0 .578-.095 1.085-.285 1.522a3 3 0 01-.796 1.095 3.397 3.397 0 01-1.216.668 5.168 5.168 0 01-1.977.2c-.2-.01-.417-.022-.654-.036l-.697-.043c-.233-.01-.425-.014-.576-.014zm2.076-5.625c-.265 0-.514.01-.746.028a3.684 3.684 0 00-.57.071v4.665c.072.02.145.038.221.057.08.014.17.029.27.043.1.01.218.019.356.028.137.005.303.008.498.008.777 0 1.372-.216 1.785-.648.412-.431.618-1.064.618-1.898 0-.403-.059-.752-.178-1.046a1.832 1.832 0 00-.49-.732 2.038 2.038 0 00-.768-.434 3.28 3.28 0 00-.996-.142z" fill="#262727"/><ellipse rx=".405" ry="6.473" transform="scale(-1 1) rotate(-40.663 15.825 54.237)" fill="#CFAC68"/><ellipse rx=".405" ry="6.473" transform="scale(-1 1) rotate(-40.663 45.188 39.83)" fill="#CFAC68"/><ellipse cx="15.657" cy="23.407" rx=".405" ry="6.473" transform="rotate(-40.663 15.657 23.407)" fill="#CFAC68"/><ellipse cx="31.225" cy="39.062" rx=".405" ry="6.473" transform="rotate(-40.663 31.225 39.062)" fill="#CFAC68"/><path d="M21.846 30.45v-.607h.607m-.607 1.82v.607h.607m1.82-1.82v-.607h-.607m.607 1.82v.607h-.607" stroke="#CFAC68" stroke-width=".405"/></svg>