<svg width="243" height="55" viewBox="0 0 243 55" fill="none" xmlns="http://www.w3.org/2000/svg">
<path d="M55.6022 21.3906L55.5924 20.0375L56.8665 19.761L61.6271 6.29886H64.7975L69.5483 19.761L70.9212 20.0375V21.3906H64.5111V20.0375L66.121 19.761L65.3803 17.351H60.0172L59.3159 19.7708L60.9456 20.0375V21.3906H55.6022ZM62.2987 9.43969L60.4616 15.8102H64.9062L62.9605 9.43969L62.6148 7.99767L62.2987 9.43969ZM71.3305 19.998H72.4268C72.5519 19.9585 72.6902 19.8861 72.8416 19.7807C72.9996 19.6754 73.1544 19.5074 73.3058 19.277C73.4638 19.0465 73.6153 18.7403 73.7601 18.3584C73.9116 17.97 74.0433 17.4728 74.1552 16.867C74.2737 16.2547 74.3659 15.5205 74.4318 14.6645C74.5042 13.8019 74.5404 12.7846 74.5404 11.6126L72.6342 11.3262V10.0718H83.8444V11.3262L82.0863 11.6126V19.998H83.5086V20.0177L83.9826 19.998C83.9826 20.0638 83.9695 20.235 83.9431 20.5116C83.9168 20.7881 83.8839 21.1174 83.8444 21.4993C83.8114 21.8812 83.7686 22.2894 83.716 22.724C83.6699 23.1586 83.6238 23.5635 83.5777 23.9388C83.5382 24.3207 83.4987 24.6434 83.4592 24.9068C83.4262 25.1767 83.4032 25.3348 83.39 25.3809H81.6418C81.6353 25.2821 81.6188 25.1241 81.5925 24.9068C81.5661 24.6895 81.5332 24.4426 81.4937 24.166C81.4608 23.896 81.4245 23.6129 81.385 23.3166C81.3455 23.0203 81.306 22.7405 81.2665 22.4771C81.227 22.2137 81.1875 21.9832 81.148 21.7857C81.1085 21.5947 81.0756 21.4663 81.0492 21.4005L81.0591 21.3906H73.8787C73.8457 21.4565 73.8029 21.5816 73.7503 21.7659C73.7042 21.9503 73.6515 22.1643 73.5922 22.4079C73.5396 22.6581 73.4836 22.9248 73.4243 23.208C73.3651 23.4977 73.3058 23.7775 73.2466 24.0475C73.1939 24.324 73.1445 24.5775 73.0984 24.808C73.0523 25.045 73.0161 25.236 72.9898 25.3809H71.0835C71.0835 25.2887 71.0868 25.1208 71.0934 24.8771C71.1066 24.6401 71.1197 24.357 71.1329 24.0277C71.1461 23.7051 71.1593 23.3561 71.1724 22.9808C71.1922 22.6055 71.2119 22.2334 71.2317 21.8647C71.2514 21.5026 71.2679 21.1569 71.2811 20.8276C71.3008 20.4984 71.3173 20.2219 71.3305 19.998ZM76.1405 12.5213C76.1405 13.3838 76.1042 14.2102 76.0318 15.0003C75.9594 15.7905 75.8606 16.5115 75.7355 17.1634C75.617 17.8152 75.4787 18.3848 75.3207 18.872C75.1627 19.3527 74.9947 19.728 74.817 19.998H79.1035V11.4842H76.1405V12.5213ZM85.6957 21.3906V20.0671L87.029 19.8301V11.6027L85.6957 11.3262V10.0718H87.8389C88.1287 10.0718 88.4546 10.0586 88.8167 10.0323C89.1855 10.006 89.5575 9.97633 89.9328 9.94341C90.3081 9.91048 90.6703 9.88085 91.0193 9.85451C91.3748 9.82818 91.6876 9.81501 91.9576 9.81501C92.9321 9.81501 93.7255 9.88744 94.3379 10.0323C94.9502 10.1706 95.4276 10.3615 95.77 10.6052C96.119 10.8488 96.356 11.1352 96.4811 11.4644C96.6128 11.7871 96.6787 12.1295 96.6787 12.4916C96.6787 13.104 96.491 13.6538 96.1157 14.141C95.747 14.6217 95.2136 14.9839 94.5157 15.2275C95.0161 15.267 95.4573 15.3691 95.8392 15.5337C96.2276 15.6983 96.5503 15.8991 96.8071 16.1362C97.0705 16.3732 97.268 16.6366 97.3997 16.9263C97.538 17.216 97.6071 17.509 97.6071 17.8053C97.6071 18.3519 97.5182 18.8589 97.3404 19.3264C97.1626 19.7873 96.8565 20.1857 96.4219 20.5215C95.9873 20.8573 95.4046 21.1207 94.6737 21.3116C93.9494 21.5026 93.0374 21.598 91.9378 21.598C91.7008 21.598 91.3979 21.5849 91.0292 21.5585C90.6604 21.5388 90.2752 21.5157 89.8736 21.4894C89.4785 21.4696 89.0867 21.4466 88.6982 21.4203C88.3163 21.4005 87.9871 21.3906 87.7105 21.3906H85.6957ZM89.8933 14.8028H91.5032C91.9444 14.8028 92.3 14.7435 92.5699 14.625C92.8465 14.4999 93.0605 14.3386 93.2119 14.141C93.3634 13.9435 93.4654 13.7163 93.5181 13.4595C93.5708 13.2028 93.5971 12.946 93.5971 12.6892C93.5971 12.5048 93.5708 12.3204 93.5181 12.1361C93.4654 11.9517 93.3634 11.7871 93.2119 11.6422C93.0671 11.4908 92.8597 11.369 92.5897 11.2768C92.3197 11.1846 91.9707 11.1385 91.5427 11.1385C91.2333 11.1385 90.9403 11.155 90.6637 11.1879C90.3872 11.2208 90.1304 11.2439 89.8933 11.257V14.8028ZM89.8933 19.9782C89.9592 20.0046 90.0711 20.0342 90.2291 20.0671C90.3872 20.0935 90.5584 20.1198 90.7427 20.1461C90.9337 20.1725 91.118 20.1955 91.2958 20.2153C91.4802 20.2285 91.6218 20.235 91.7205 20.235C92.2144 20.235 92.6259 20.1889 92.9551 20.0968C93.2844 19.998 93.5444 19.863 93.7354 19.6918C93.9263 19.5206 94.0613 19.3132 94.1403 19.0696C94.2194 18.8194 94.2589 18.5461 94.2589 18.2498C94.2589 17.565 94.0745 17.0382 93.7058 16.6695C93.337 16.2942 92.728 16.1065 91.8786 16.1065H89.8933V19.9782ZM99.5276 15.8004C99.5276 14.7995 99.6823 13.9271 99.9918 13.183C100.301 12.4389 100.713 11.82 101.226 11.3262C101.74 10.8323 102.333 10.4636 103.004 10.22C103.682 9.97633 104.387 9.85451 105.118 9.85451C105.974 9.85451 106.731 9.9895 107.389 10.2595C108.048 10.5228 108.601 10.9047 109.049 11.4052C109.497 11.9056 109.836 12.5147 110.066 13.2324C110.297 13.9501 110.412 14.7633 110.412 15.672C110.412 16.6991 110.257 17.5881 109.948 18.3387C109.638 19.0893 109.227 19.7083 108.713 20.1955C108.199 20.6762 107.607 21.0351 106.935 21.2721C106.264 21.5026 105.562 21.6178 104.831 21.6178C103.975 21.6178 103.218 21.4861 102.56 21.2227C101.901 20.9528 101.345 20.5676 100.891 20.0671C100.443 19.5667 100.104 18.9576 99.8732 18.2399C99.6428 17.5222 99.5276 16.709 99.5276 15.8004ZM104.999 20.2548C105.361 20.2548 105.674 20.1758 105.938 20.0177C106.201 19.8531 106.418 19.5996 106.589 19.2572C106.767 18.9083 106.896 18.4638 106.975 17.9239C107.06 17.3839 107.103 16.7386 107.103 15.988C107.103 15.2176 107.064 14.5361 106.985 13.9435C106.912 13.3443 106.79 12.8439 106.619 12.4422C106.454 12.0406 106.234 11.7377 105.957 11.5336C105.687 11.3229 105.355 11.2175 104.96 11.2175C104.598 11.2175 104.282 11.2998 104.012 11.4644C103.748 11.6225 103.528 11.876 103.35 12.2249C103.172 12.5673 103.04 13.0085 102.955 13.5484C102.869 14.0884 102.826 14.7337 102.826 15.4843C102.826 16.2547 102.866 16.9395 102.945 17.5387C103.024 18.1313 103.149 18.6284 103.32 19.0301C103.498 19.4317 103.722 19.7379 103.992 19.9486C104.268 20.1527 104.604 20.2548 104.999 20.2548ZM122.239 21.3906C121.942 21.3906 121.669 21.2622 121.419 21.0054C121.175 20.7486 120.942 20.426 120.718 20.0375C120.5 19.649 120.283 19.2309 120.066 18.7831C119.848 18.3354 119.621 17.9173 119.384 17.5288C119.147 17.1403 118.887 16.8177 118.604 16.5609C118.327 16.3041 118.018 16.1757 117.676 16.1757H116.846V19.8696L118.466 20.0671V21.3906H112.559V20.0671L113.883 19.8696V11.6126L112.589 11.3262V10.0718H118.268V11.3262L116.846 11.6126V14.8818H118.821L120.866 11.6027L119.453 11.3262V10.0718H124.767V11.3262L123.177 11.6027L120.54 15.1386C120.863 15.3032 121.159 15.5271 121.429 15.8102C121.699 16.0868 121.946 16.393 122.17 16.7288C122.4 17.058 122.611 17.3971 122.802 17.7461C122.993 18.0885 123.174 18.4045 123.345 18.6943C123.523 18.984 123.691 19.2309 123.849 19.435C124.007 19.6391 124.165 19.7675 124.323 19.8202L125.241 20.0671V21.3906H122.239ZM126.352 18.3881C126.352 17.9008 126.437 17.4695 126.609 17.0942C126.786 16.7189 127.027 16.3897 127.33 16.1065C127.639 15.8234 128.001 15.5831 128.416 15.3855C128.831 15.188 129.279 15.0267 129.759 14.9016C130.24 14.7699 130.74 14.6744 131.261 14.6151C131.781 14.5559 132.301 14.5197 132.821 14.5065V14.0324C132.821 13.2818 132.666 12.7484 132.357 12.4324C132.054 12.1097 131.554 11.9484 130.856 11.9484C130.5 11.9484 130.141 11.978 129.779 12.0373C129.423 12.09 129.081 12.1591 128.752 12.2447C128.423 12.3237 128.116 12.4159 127.833 12.5213C127.557 12.62 127.32 12.7155 127.122 12.8077H127.112L126.53 11.4842C126.668 11.3723 126.902 11.2274 127.231 11.0496C127.56 10.8652 127.955 10.6875 128.416 10.5163C128.877 10.3451 129.387 10.1969 129.947 10.0718C130.507 9.9467 131.083 9.88414 131.675 9.88414C132.406 9.88414 133.025 9.96316 133.532 10.1212C134.046 10.2792 134.461 10.5228 134.777 10.8521C135.099 11.1813 135.333 11.5994 135.478 12.1064C135.629 12.6069 135.705 13.1995 135.705 13.8843V20.0474H136.93V21.2622C136.805 21.2886 136.65 21.3248 136.466 21.3709C136.281 21.4104 136.077 21.4466 135.853 21.4795C135.629 21.519 135.389 21.5519 135.132 21.5783C134.875 21.6046 134.612 21.6178 134.342 21.6178C134.105 21.6178 133.901 21.6079 133.73 21.5882C133.565 21.5684 133.43 21.5223 133.325 21.4499C133.226 21.3775 133.154 21.2754 133.108 21.1437C133.061 21.0054 133.038 20.8211 133.038 20.5906V20.0177C132.926 20.1692 132.772 20.3371 132.574 20.5215C132.377 20.7058 132.136 20.8803 131.853 21.0449C131.577 21.2096 131.261 21.3445 130.905 21.4499C130.549 21.5618 130.158 21.6178 129.73 21.6178C129.262 21.6178 128.824 21.5552 128.416 21.4301C128.008 21.305 127.649 21.1108 127.339 20.8474C127.037 20.584 126.796 20.2482 126.618 19.84C126.441 19.4317 126.352 18.9478 126.352 18.3881ZM131.043 19.7116C131.162 19.7116 131.297 19.6951 131.448 19.6622C131.6 19.6293 131.758 19.5832 131.922 19.5239C132.087 19.4646 132.248 19.3955 132.406 19.3165C132.564 19.2309 132.703 19.1354 132.821 19.0301V15.7608C132.182 15.7608 131.646 15.8201 131.211 15.9386C130.783 16.0571 130.441 16.2152 130.184 16.4127C129.927 16.6103 129.743 16.8374 129.631 17.0942C129.526 17.351 129.473 17.6243 129.473 17.914C129.473 18.5 129.605 18.9478 129.868 19.2572C130.138 19.5601 130.53 19.7116 131.043 19.7116ZM140.519 21.3906V20.0671L142.88 19.8202V11.3953L140.717 11.5731L140.154 14.5658H138.376L138.475 10.0718H150.228L150.327 14.5658H148.549L147.947 11.5731L145.892 11.3953V19.8202L148.302 20.0671V21.3906H140.519ZM159.018 21.3906V20.0375L160.855 19.8498V7.99767L159.027 7.68162V6.35812H170.267L170.475 10.378H168.628L167.966 7.95817L163.976 7.80014V12.7089C164.088 12.6826 164.236 12.6562 164.42 12.6299C164.611 12.6036 164.819 12.5805 165.042 12.5608C165.266 12.5344 165.5 12.5147 165.744 12.5015C165.994 12.4817 166.237 12.4719 166.475 12.4719C167.291 12.4719 168.022 12.5706 168.667 12.7682C169.319 12.9591 169.869 13.239 170.317 13.6077C170.771 13.9764 171.117 14.4275 171.354 14.9608C171.597 15.4942 171.719 16.0999 171.719 16.7782C171.719 17.5485 171.587 18.2333 171.324 18.8325C171.061 19.4251 170.692 19.9223 170.218 20.3239C169.744 20.7256 169.177 21.0318 168.519 21.2425C167.867 21.4466 167.149 21.5487 166.366 21.5487C166.287 21.5487 166.155 21.5454 165.971 21.5388C165.786 21.5322 165.576 21.5223 165.339 21.5091C165.102 21.496 164.848 21.4828 164.578 21.4696C164.308 21.4565 164.045 21.4433 163.788 21.4301C163.531 21.417 163.291 21.4071 163.067 21.4005C162.843 21.3939 162.662 21.3906 162.524 21.3906H159.018ZM165.586 13.9435C165.217 13.9435 164.907 13.9501 164.657 13.9633C164.407 13.9764 164.18 14.0028 163.976 14.0423V19.9782C164.153 20.0309 164.351 20.077 164.568 20.1165C164.792 20.1494 165.102 20.1659 165.497 20.1659C166.03 20.1659 166.484 20.0869 166.86 19.9289C167.242 19.7708 167.551 19.5502 167.788 19.2671C168.025 18.9774 168.196 18.6383 168.302 18.2498C168.414 17.8547 168.47 17.4267 168.47 16.9658C168.47 15.8991 168.223 15.1287 167.729 14.6546C167.235 14.1806 166.521 13.9435 165.586 13.9435ZM178.864 21.6178C177.936 21.6178 177.136 21.4729 176.464 21.1832C175.799 20.8935 175.249 20.4918 174.815 19.9782C174.387 19.4581 174.071 18.8391 173.867 18.1214C173.663 17.4037 173.561 16.6201 173.561 15.7707C173.561 14.8489 173.689 14.0258 173.946 13.3015C174.209 12.5706 174.578 11.9517 175.052 11.4447C175.526 10.9311 176.096 10.5393 176.761 10.2693C177.426 9.99937 178.163 9.86439 178.973 9.86439C181.706 9.86439 183.131 11.1978 183.25 13.8645C183.263 14.3188 183.26 14.7304 183.24 15.0991C183.227 15.4612 183.194 15.7674 183.141 16.0176H176.691C176.724 16.6695 176.82 17.2259 176.978 17.6868C177.136 18.1477 177.343 18.5231 177.6 18.8128C177.857 19.1025 178.16 19.3132 178.509 19.4449C178.864 19.5766 179.253 19.6424 179.674 19.6424C180.01 19.6424 180.323 19.6161 180.613 19.5634C180.902 19.5107 181.169 19.4449 181.413 19.3659C181.663 19.2869 181.887 19.198 182.084 19.0992C182.288 19.0004 182.463 18.905 182.608 18.8128L183.121 20.0079C182.957 20.1791 182.726 20.3601 182.43 20.5511C182.14 20.7355 181.804 20.9067 181.422 21.0647C181.047 21.2227 180.639 21.3544 180.198 21.4598C179.763 21.5651 179.319 21.6178 178.864 21.6178ZM178.598 11.1879C178.341 11.1879 178.101 11.234 177.877 11.3262C177.659 11.4183 177.465 11.5928 177.294 11.8496C177.129 12.1064 176.991 12.4653 176.879 12.9262C176.774 13.3805 176.708 13.9699 176.682 14.6941H180.227C180.227 14.6612 180.227 14.6151 180.227 14.5559C180.234 14.4966 180.237 14.4341 180.237 14.3682C180.244 14.3024 180.247 14.2398 180.247 14.1806C180.247 14.1213 180.247 14.0785 180.247 14.0522C180.247 13.7163 180.224 13.3772 180.178 13.0348C180.132 12.6859 180.046 12.3764 179.921 12.1064C179.803 11.8365 179.635 11.6159 179.417 11.4447C179.207 11.2735 178.934 11.1879 178.598 11.1879ZM186.316 11.3262V10.0718H197.279V11.4052L195.521 11.741V19.8696L197.18 20.0671V21.3906H190.988V20.0671L192.469 19.8696V11.5533H189.654V12.5904C189.654 13.4793 189.618 14.3221 189.546 15.1189C189.473 15.909 189.378 16.63 189.259 17.2819C189.141 17.9337 189.006 18.5033 188.854 18.9906C188.703 19.4712 188.551 19.8498 188.4 20.1264C188.308 20.3239 188.196 20.5116 188.064 20.6894C187.932 20.8606 187.778 21.012 187.6 21.1437C187.422 21.2688 187.218 21.3676 186.987 21.44C186.764 21.5124 186.507 21.5487 186.217 21.5487C186.112 21.5487 185.973 21.5388 185.802 21.519C185.638 21.5059 185.473 21.4861 185.308 21.4598C185.144 21.44 184.999 21.417 184.874 21.3906C184.749 21.3577 184.673 21.3314 184.647 21.3116L184.874 19.1387C184.907 19.1585 184.992 19.1881 185.131 19.2276C185.269 19.2605 185.42 19.2967 185.585 19.3362C185.756 19.3758 185.921 19.4087 186.079 19.435C186.237 19.4614 186.349 19.4745 186.415 19.4745C186.665 19.4745 186.895 19.2638 187.106 18.8424C187.317 18.4144 187.501 17.8416 187.659 17.1238C187.817 16.3995 187.939 15.5633 188.025 14.6151C188.117 13.667 188.163 12.6661 188.163 11.6126L186.316 11.3262ZM198.528 21.3906V20.0671L199.279 19.8202C199.588 19.7478 199.858 19.593 200.088 19.356C200.319 19.1124 200.53 18.8391 200.721 18.5362C200.912 18.2268 201.093 17.9107 201.264 17.5881C201.435 17.2654 201.619 16.9856 201.817 16.7485C201 16.4983 200.408 16.0934 200.039 15.5337C199.677 14.9674 199.496 14.2694 199.496 13.4398C199.496 12.8999 199.614 12.4159 199.851 11.9879C200.088 11.5533 200.424 11.1846 200.859 10.8817C201.3 10.5788 201.83 10.3484 202.449 10.1903C203.075 10.0257 203.776 9.94341 204.553 9.94341C204.856 9.94341 205.218 9.94999 205.639 9.96316C206.067 9.97633 206.495 9.99279 206.923 10.0125C207.358 10.0257 207.763 10.0389 208.138 10.0521C208.52 10.0652 208.816 10.0718 209.027 10.0718H210.933V11.3558L209.56 11.6126V19.8202L210.992 20.0671V21.3906H205.017V20.0671L206.587 19.8202V17.0251L204.365 17.0152C204.194 17.2127 204.039 17.4597 203.901 17.756C203.763 18.0523 203.631 18.3617 203.506 18.6844C203.387 19.007 203.272 19.3297 203.16 19.6523C203.055 19.9749 202.943 20.2647 202.824 20.5215C202.712 20.7783 202.594 20.989 202.469 21.1536C202.344 21.3116 202.205 21.3906 202.054 21.3906H198.528ZM205.027 15.5929C205.145 15.5929 205.277 15.5929 205.422 15.5929C205.573 15.5929 205.722 15.5929 205.866 15.5929C206.018 15.5929 206.156 15.5929 206.281 15.5929C206.413 15.5929 206.515 15.5896 206.587 15.5831V11.3953C206.443 11.3821 206.245 11.3591 205.995 11.3262C205.745 11.2932 205.389 11.2768 204.928 11.2768C204.671 11.2768 204.411 11.2998 204.148 11.3459C203.884 11.3854 203.644 11.471 203.427 11.6027C203.216 11.7278 203.045 11.9089 202.913 12.1459C202.782 12.383 202.716 12.699 202.716 13.0941C202.716 13.4299 202.752 13.7493 202.824 14.0522C202.903 14.3485 203.032 14.6118 203.21 14.8423C203.394 15.0728 203.634 15.2571 203.931 15.3954C204.227 15.5271 204.592 15.5929 205.027 15.5929ZM218.395 21.6178C217.466 21.6178 216.666 21.4729 215.994 21.1832C215.329 20.8935 214.78 20.4918 214.345 19.9782C213.917 19.4581 213.601 18.8391 213.397 18.1214C213.193 17.4037 213.091 16.6201 213.091 15.7707C213.091 14.8489 213.219 14.0258 213.476 13.3015C213.739 12.5706 214.108 11.9517 214.582 11.4447C215.056 10.9311 215.626 10.5393 216.291 10.2693C216.956 9.99937 217.693 9.86439 218.503 9.86439C221.236 9.86439 222.661 11.1978 222.78 13.8645C222.793 14.3188 222.79 14.7304 222.77 15.0991C222.757 15.4612 222.724 15.7674 222.671 16.0176H216.222C216.255 16.6695 216.35 17.2259 216.508 17.6868C216.666 18.1477 216.874 18.5231 217.13 18.8128C217.387 19.1025 217.69 19.3132 218.039 19.4449C218.395 19.5766 218.783 19.6424 219.204 19.6424C219.54 19.6424 219.853 19.6161 220.143 19.5634C220.432 19.5107 220.699 19.4449 220.943 19.3659C221.193 19.2869 221.417 19.198 221.614 19.0992C221.818 19.0004 221.993 18.905 222.138 18.8128L222.651 20.0079C222.487 20.1791 222.256 20.3601 221.96 20.5511C221.67 20.7355 221.335 20.9067 220.953 21.0647C220.577 21.2227 220.169 21.3544 219.728 21.4598C219.293 21.5651 218.849 21.6178 218.395 21.6178ZM218.128 11.1879C217.871 11.1879 217.631 11.234 217.407 11.3262C217.19 11.4183 216.995 11.5928 216.824 11.8496C216.66 12.1064 216.521 12.4653 216.409 12.9262C216.304 13.3805 216.238 13.9699 216.212 14.6941H219.758C219.758 14.6612 219.758 14.6151 219.758 14.5559C219.764 14.4966 219.767 14.4341 219.767 14.3682C219.774 14.3024 219.777 14.2398 219.777 14.1806C219.777 14.1213 219.777 14.0785 219.777 14.0522C219.777 13.7163 219.754 13.3772 219.708 13.0348C219.662 12.6859 219.576 12.3764 219.451 12.1064C219.333 11.8365 219.165 11.6159 218.948 11.4447C218.737 11.2735 218.464 11.1879 218.128 11.1879ZM225.016 21.3906V20.0671L226.35 19.8301V11.6027L225.016 11.3262V10.0718H227.16C227.449 10.0718 227.775 10.0586 228.137 10.0323C228.506 10.006 228.878 9.97633 229.253 9.94341C229.629 9.91048 229.991 9.88085 230.34 9.85451C230.696 9.82818 231.008 9.81501 231.278 9.81501C232.253 9.81501 233.046 9.88744 233.659 10.0323C234.271 10.1706 234.748 10.3615 235.091 10.6052C235.44 10.8488 235.677 11.1352 235.802 11.4644C235.934 11.7871 235.999 12.1295 235.999 12.4916C235.999 13.104 235.812 13.6538 235.436 14.141C235.068 14.6217 234.534 14.9839 233.836 15.2275C234.337 15.267 234.778 15.3691 235.16 15.5337C235.548 15.6983 235.871 15.8991 236.128 16.1362C236.391 16.3732 236.589 16.6366 236.72 16.9263C236.859 17.216 236.928 17.509 236.928 17.8053C236.928 18.3519 236.839 18.8589 236.661 19.3264C236.483 19.7873 236.177 20.1857 235.743 20.5215C235.308 20.8573 234.725 21.1207 233.994 21.3116C233.27 21.5026 232.358 21.598 231.258 21.598C231.021 21.598 230.719 21.5849 230.35 21.5585C229.981 21.5388 229.596 21.5157 229.194 21.4894C228.799 21.4696 228.407 21.4466 228.019 21.4203C227.637 21.4005 227.308 21.3906 227.031 21.3906H225.016ZM229.214 14.8028H230.824C231.265 14.8028 231.621 14.7435 231.891 14.625C232.167 14.4999 232.381 14.3386 232.533 14.141C232.684 13.9435 232.786 13.7163 232.839 13.4595C232.891 13.2028 232.918 12.946 232.918 12.6892C232.918 12.5048 232.891 12.3204 232.839 12.1361C232.786 11.9517 232.684 11.7871 232.533 11.6422C232.388 11.4908 232.18 11.369 231.91 11.2768C231.64 11.1846 231.291 11.1385 230.863 11.1385C230.554 11.1385 230.261 11.155 229.984 11.1879C229.708 11.2208 229.451 11.2439 229.214 11.257V14.8028ZM229.214 19.9782C229.28 20.0046 229.392 20.0342 229.55 20.0671C229.708 20.0935 229.879 20.1198 230.063 20.1461C230.254 20.1725 230.439 20.1955 230.616 20.2153C230.801 20.2285 230.942 20.235 231.041 20.235C231.535 20.235 231.947 20.1889 232.276 20.0968C232.605 19.998 232.865 19.863 233.056 19.6918C233.247 19.5206 233.382 19.3132 233.461 19.0696C233.54 18.8194 233.58 18.5461 233.58 18.2498C233.58 17.565 233.395 17.0382 233.026 16.6695C232.658 16.2942 232.049 16.1065 231.199 16.1065H229.214V19.9782ZM55.6022 49.3906L55.5924 48.0375L56.8665 47.761L61.6271 34.2989H64.7975L69.5483 47.761L70.9212 48.0375V49.3906H64.5111V48.0375L66.121 47.761L65.3803 45.351H60.0172L59.3159 47.7708L60.9456 48.0375V49.3906H55.6022ZM62.2987 37.4397L60.4616 43.8102H64.9062L62.9605 37.4397L62.6148 35.9977L62.2987 37.4397ZM71.8342 49.3906V48.0671L73.1675 47.8795V39.6027L71.8342 39.3262V38.0718H77.5923V39.3262L76.1503 39.6027V42.7929H80.8912V39.6126L79.4492 39.3262V38.0718H85.1777V39.3262L83.8641 39.6027V47.8696L85.2074 48.0671V49.3906H79.4196V48.0671L80.8912 47.8696V44.2448H76.1503V47.8696L77.622 48.0671V49.3906H71.8342ZM87.0883 47.998H88.1846C88.3097 47.9585 88.448 47.8861 88.5995 47.7807C88.7575 47.6754 88.9122 47.5074 89.0637 47.277C89.2217 47.0465 89.3731 46.7403 89.518 46.3584C89.6694 45.97 89.8011 45.4728 89.9131 44.867C90.0316 44.2547 90.1238 43.5205 90.1896 42.6645C90.2621 41.8019 90.2983 40.7846 90.2983 39.6126L88.392 39.3262V38.0718H99.6022V39.3262L97.8441 39.6126V47.998H99.2664V48.0177L99.7405 47.998C99.7405 48.0638 99.7273 48.235 99.701 48.5116C99.6746 48.7881 99.6417 49.1174 99.6022 49.4993C99.5693 49.8812 99.5265 50.2894 99.4738 50.724C99.4277 51.1586 99.3816 51.5635 99.3355 51.9388C99.296 52.3207 99.2565 52.6434 99.217 52.9068C99.1841 53.1767 99.1611 53.3348 99.1479 53.3809H97.3997C97.3931 53.2821 97.3766 53.1241 97.3503 52.9068C97.324 52.6895 97.291 52.4426 97.2515 52.166C97.2186 51.896 97.1824 51.6129 97.1429 51.3166C97.1034 51.0203 97.0639 50.7405 97.0244 50.4771C96.9849 50.2137 96.9454 49.9832 96.9059 49.7857C96.8663 49.5947 96.8334 49.4663 96.8071 49.4005L96.817 49.3906H89.6365C89.6036 49.4565 89.5608 49.5816 89.5081 49.7659C89.462 49.9503 89.4094 50.1643 89.3501 50.4079C89.2974 50.6581 89.2414 50.9248 89.1822 51.208C89.1229 51.4977 89.0637 51.7775 89.0044 52.0475C88.9517 52.324 88.9023 52.5775 88.8563 52.808C88.8102 53.045 88.7739 53.236 88.7476 53.3809H86.8414C86.8414 53.2887 86.8447 53.1208 86.8513 52.8771C86.8644 52.6401 86.8776 52.357 86.8908 52.0277C86.9039 51.7051 86.9171 51.3561 86.9303 50.9808C86.95 50.6055 86.9698 50.2334 86.9895 49.8647C87.0093 49.5026 87.0258 49.1569 87.0389 48.8276C87.0587 48.4984 87.0751 48.2219 87.0883 47.998ZM91.8983 40.5213C91.8983 41.3838 91.8621 42.2102 91.7897 43.0003C91.7172 43.7905 91.6185 44.5115 91.4934 45.1634C91.3748 45.8152 91.2366 46.3848 91.0785 46.872C90.9205 47.3527 90.7526 47.728 90.5748 47.998H94.8614V39.4842H91.8983V40.5213ZM101.197 53.0352L102.678 52.7882V40.2743L101.335 39.8595V38.3681L104.871 37.8841H104.92L105.424 38.3088V39.3558C105.589 39.1648 105.783 38.9805 106.007 38.8027C106.231 38.6183 106.481 38.457 106.757 38.3187C107.034 38.1804 107.337 38.0685 107.666 37.9829C107.995 37.8973 108.351 37.8545 108.733 37.8545C109.339 37.8545 109.905 37.9566 110.432 38.1607C110.965 38.3648 111.429 38.6908 111.824 39.1385C112.219 39.5797 112.529 40.1525 112.753 40.8571C112.983 41.5616 113.098 42.411 113.098 43.4053C113.098 44.281 112.963 45.0975 112.693 45.8547C112.43 46.6054 112.048 47.2605 111.548 47.8202C111.047 48.3799 110.438 48.8211 109.72 49.1437C109.003 49.4598 108.193 49.6178 107.291 49.6178C107.126 49.6178 106.961 49.6112 106.797 49.598C106.639 49.5849 106.484 49.5684 106.333 49.5487C106.188 49.5289 106.056 49.5091 105.938 49.4894C105.819 49.4696 105.724 49.4499 105.651 49.4301L105.71 51.0697V52.7882L107.666 53.0352V54.2895H101.197V53.0352ZM107.478 39.6521C107.083 39.6521 106.731 39.7245 106.422 39.8694C106.112 40.0077 105.875 40.1657 105.71 40.3435V47.8202C105.822 47.9453 106.003 48.0573 106.254 48.156C106.504 48.2482 106.807 48.2943 107.162 48.2943C107.518 48.2943 107.854 48.2186 108.17 48.0671C108.492 47.9091 108.772 47.6523 109.009 47.2967C109.246 46.9412 109.437 46.4737 109.582 45.8942C109.727 45.3148 109.806 44.6037 109.819 43.7608C109.832 43.0168 109.783 42.3847 109.671 41.8645C109.566 41.3443 109.411 40.9196 109.207 40.5904C109.003 40.2612 108.752 40.0241 108.456 39.8793C108.166 39.7278 107.841 39.6521 107.478 39.6521ZM120.402 49.6178C119.473 49.6178 118.673 49.4729 118.002 49.1832C117.336 48.8935 116.787 48.4918 116.352 47.9782C115.924 47.4581 115.608 46.8391 115.404 46.1214C115.2 45.4037 115.098 44.6201 115.098 43.7707C115.098 42.8489 115.226 42.0258 115.483 41.3015C115.746 40.5706 116.115 39.9517 116.589 39.4447C117.063 38.9311 117.633 38.5393 118.298 38.2693C118.963 37.9994 119.7 37.8644 120.51 37.8644C123.243 37.8644 124.668 39.1978 124.787 41.8645C124.8 42.3188 124.797 42.7304 124.777 43.0991C124.764 43.4612 124.731 43.7674 124.678 44.0176H118.229C118.262 44.6695 118.357 45.2259 118.515 45.6868C118.673 46.1477 118.881 46.5231 119.137 46.8128C119.394 47.1025 119.697 47.3132 120.046 47.4449C120.402 47.5766 120.79 47.6424 121.211 47.6424C121.547 47.6424 121.86 47.6161 122.15 47.5634C122.44 47.5107 122.706 47.4449 122.95 47.3659C123.2 47.2869 123.424 47.198 123.621 47.0992C123.826 47.0004 124 46.905 124.145 46.8128L124.658 48.0079C124.494 48.1791 124.263 48.3601 123.967 48.5511C123.677 48.7355 123.342 48.9067 122.96 49.0647C122.584 49.2227 122.176 49.3544 121.735 49.4598C121.3 49.5651 120.856 49.6178 120.402 49.6178ZM120.135 39.1879C119.878 39.1879 119.638 39.234 119.414 39.3262C119.197 39.4183 119.002 39.5928 118.831 39.8496C118.667 40.1064 118.528 40.4653 118.416 40.9262C118.311 41.3805 118.245 41.9699 118.219 42.6941H121.765C121.765 42.6612 121.765 42.6151 121.765 42.5559C121.771 42.4966 121.774 42.4341 121.774 42.3682C121.781 42.3024 121.784 42.2398 121.784 42.1806C121.784 42.1213 121.784 42.0785 121.784 42.0522C121.784 41.7163 121.761 41.3772 121.715 41.0348C121.669 40.6859 121.584 40.3764 121.458 40.1064C121.34 39.8365 121.172 39.6159 120.955 39.4447C120.744 39.2735 120.471 39.1879 120.135 39.1879ZM127.033 49.3906V48.0671L128.357 47.8696V39.6225L127.063 39.3262V38.0718H132.801V39.336L131.349 39.6126V46.6054L132.406 44.7288L137.108 38.0718H140.9V39.336L139.616 39.6126V47.8795L140.989 48.077V49.3906H135.192V48.077L136.624 47.8103V40.7879L135.685 42.467L130.846 49.3906H127.033ZM134.263 36.4421C133.624 36.4421 133.048 36.3532 132.535 36.1755C132.021 35.9977 131.586 35.7508 131.231 35.4347C130.875 35.1121 130.602 34.7302 130.411 34.289C130.22 33.8412 130.125 33.3507 130.125 32.8173C130.125 32.7647 130.125 32.6824 130.125 32.5704C130.131 32.4585 130.138 32.3762 130.144 32.3235H132.189C132.268 32.3235 132.331 32.3564 132.377 32.4223C132.423 32.4815 132.456 32.5605 132.475 32.6593C132.502 32.7515 132.518 32.8536 132.525 32.9655C132.538 33.0708 132.545 33.1729 132.545 33.2717C132.545 33.5153 132.577 33.7523 132.643 33.9828C132.709 34.2067 132.811 34.4075 132.949 34.5853C133.094 34.7565 133.275 34.8948 133.493 35.0001C133.71 35.1055 133.97 35.1581 134.273 35.1581C134.576 35.1581 134.833 35.1055 135.043 35.0001C135.261 34.8948 135.435 34.7565 135.567 34.5853C135.705 34.4075 135.804 34.2067 135.863 33.9828C135.929 33.7523 135.962 33.5153 135.962 33.2717C135.962 33.1729 135.965 33.0708 135.972 32.9655C135.985 32.8536 136.001 32.7515 136.021 32.6593C136.048 32.5605 136.084 32.4815 136.13 32.4223C136.176 32.3564 136.238 32.3235 136.317 32.3235H138.362C138.369 32.3762 138.372 32.4585 138.372 32.5704C138.378 32.6824 138.382 32.7647 138.382 32.8173C138.382 33.3573 138.29 33.8511 138.105 34.2989C137.927 34.74 137.664 35.1219 137.315 35.4446C136.966 35.7606 136.535 36.0076 136.021 36.1853C135.514 36.3565 134.928 36.4421 134.263 36.4421ZM156.722 35.6816L154.993 35.9779L154.983 45.0745L156.011 43.188L161.226 36.3335V35.9779L159.626 35.6816V34.3581H165.927V35.6816L164.347 35.9779V47.761L165.976 48.0375V49.3906H159.596V48.0375L161.226 47.761L161.235 38.5261L160.248 40.4916L154.993 47.1782V47.761L156.682 48.0375V49.3906H150.262V48.0375L151.872 47.761V35.9878L150.292 35.6816V34.3581H156.722V35.6816ZM169.122 39.3262V38.0718H180.085V39.4052L178.327 39.741V47.8696L179.986 48.0671V49.3906H173.793V48.0671L175.275 47.8696V39.5533H172.46V40.5904C172.46 41.4793 172.424 42.3221 172.351 43.1189C172.279 43.909 172.183 44.63 172.065 45.2819C171.946 45.9337 171.811 46.5033 171.66 46.9906C171.508 47.4712 171.357 47.8498 171.206 48.1264C171.113 48.3239 171.001 48.5116 170.87 48.6894C170.738 48.8606 170.583 49.012 170.405 49.1437C170.228 49.2688 170.024 49.3676 169.793 49.44C169.569 49.5124 169.312 49.5487 169.023 49.5487C168.917 49.5487 168.779 49.5388 168.608 49.519C168.443 49.5059 168.279 49.4861 168.114 49.4598C167.949 49.44 167.805 49.417 167.679 49.3906C167.554 49.3577 167.479 49.3314 167.452 49.3116L167.679 47.1387C167.712 47.1585 167.798 47.1881 167.936 47.2276C168.075 47.2605 168.226 47.2967 168.391 47.3362C168.562 47.3758 168.726 47.4087 168.884 47.435C169.042 47.4614 169.154 47.4745 169.22 47.4745C169.47 47.4745 169.701 47.2638 169.912 46.8424C170.122 46.4144 170.307 45.8416 170.465 45.1238C170.623 44.3995 170.745 43.5633 170.83 42.6151C170.922 41.667 170.968 40.6661 170.968 39.6126L169.122 39.3262ZM184.662 49.3906H181.906V48.1264L183.388 47.8696V39.6126L181.956 39.3558V38.0718H188.089V39.3558L186.371 39.6126V42.7732C186.463 42.7468 186.598 42.7205 186.776 42.6941C186.96 42.6612 187.161 42.6316 187.378 42.6053C187.595 42.5789 187.819 42.5559 188.05 42.5361C188.28 42.5164 188.494 42.5065 188.692 42.5065C189.502 42.5065 190.19 42.5822 190.756 42.7337C191.322 42.8785 191.783 43.0958 192.139 43.3855C192.494 43.6752 192.751 44.0341 192.909 44.4621C193.074 44.8835 193.156 45.3708 193.156 45.9239C193.156 47.2013 192.754 48.1297 191.951 48.7091C191.154 49.2886 189.989 49.5783 188.455 49.5783C188.303 49.5783 188.056 49.5684 187.714 49.5487C187.372 49.5289 187.006 49.5059 186.618 49.4795C186.229 49.4598 185.854 49.44 185.492 49.4203C185.13 49.4005 184.853 49.3906 184.662 49.3906ZM187.803 44.0275C187.5 44.0275 187.223 44.0506 186.973 44.0967C186.723 44.1427 186.522 44.1921 186.371 44.2448V48.0177C186.522 48.0638 186.703 48.1033 186.914 48.1363C187.125 48.1692 187.414 48.1857 187.783 48.1857C188.606 48.1857 189.196 48.0112 189.551 47.6622C189.907 47.3066 190.084 46.7897 190.084 46.1115C190.084 45.7165 190.035 45.3872 189.936 45.1238C189.838 44.8539 189.693 44.6399 189.502 44.4819C189.311 44.3172 189.074 44.202 188.791 44.1362C188.507 44.0637 188.178 44.0275 187.803 44.0275ZM194.859 49.3906V48.0671L196.183 47.8696V39.6225L194.889 39.3262V38.0718H200.627V39.336L199.175 39.6126V46.6054L200.232 44.7288L204.934 38.0718H208.726V39.336L207.442 39.6126V47.8795L208.815 48.077V49.3906H203.018V48.077L204.45 47.8103V40.7879L203.511 42.467L198.672 49.3906H194.859ZM215.526 45.6078C214.887 45.6078 214.334 45.5354 213.867 45.3905C213.399 45.2457 213.014 45.0053 212.711 44.6695C212.415 44.3271 212.194 43.8794 212.049 43.3263C211.904 42.7666 211.832 42.0752 211.832 41.2521V39.6126L210.637 39.3262V38.0718H216.188V39.3262L214.933 39.6126V40.7287C214.933 41.4135 214.956 41.9731 215.002 42.4077C215.049 42.8357 215.137 43.1715 215.269 43.4152C215.401 43.6588 215.582 43.8267 215.812 43.9189C216.049 44.0045 216.359 44.0473 216.741 44.0473C216.971 44.0473 217.218 44.0374 217.482 44.0176C217.751 43.9979 218.008 43.9716 218.252 43.9386C218.502 43.9057 218.729 43.8629 218.933 43.8102C219.138 43.7576 219.292 43.7016 219.398 43.6423V39.6027L217.906 39.3262V38.0718H223.684V39.3262L222.38 39.6126V47.8202L223.714 48.0671V49.3906H217.669V48.0671L219.398 47.8103V44.9658C218.917 45.1634 218.364 45.3214 217.738 45.4399C217.119 45.5518 216.382 45.6078 215.526 45.6078Z" fill="#CFAC68"/>
<path d="M15.373 9.61507C15.373 8.72136 16.0975 7.99686 16.9913 7.99686H29.937C30.8307 7.99686 31.5552 8.72136 31.5552 9.61507V24.179H15.373V9.61507Z" fill="#CFAC68"/>
<path d="M29.937 23.3699H44.501C45.3947 23.3699 46.1192 24.0944 46.1192 24.9881V37.9338C46.1192 38.8276 45.3947 39.5521 44.501 39.5521H29.937V23.3699Z" fill="#CFAC68"/>
<path d="M15.373 37.9338H31.5552V52.4978C31.5552 53.3915 30.8307 54.116 29.937 54.116H16.9913C16.0975 54.116 15.373 53.3915 15.373 52.4978V37.9338Z" fill="#CFAC68"/>
<path d="M0 24.9881C0 24.0944 0.7245 23.3699 1.61822 23.3699H16.1822V39.5521H1.61822C0.724499 39.5521 0 38.8276 0 37.9338V24.9881Z" fill="#CFAC68"/>
<path d="M2.15708 36.3699L2.14997 35.5877L3.06732 35.3885L6.67275 25.4541H8.28702L11.8 35.3957L12.7102 35.5877V36.3699H8.85592V35.5877L10.0151 35.3885L9.3466 33.3192H5.10827L4.43981 35.3885L5.64162 35.5877V36.3699H2.15708ZM6.92876 27.7083L5.40694 32.416H9.04793L7.53322 27.7083L7.23455 26.5563L6.92876 27.7083Z" fill="#262727"/>
<path d="M35.9326 36.3699H33.5717V35.5877L35.0793 35.4099V26.5208L33.5859 26.3287V25.5465H41.515L41.6644 28.2346H40.6119L40.0999 26.471L36.6936 26.3999V29.9768C36.7742 29.9579 36.8784 29.9389 37.0065 29.92C37.1392 29.901 37.2838 29.8844 37.4402 29.8702C37.5967 29.8512 37.7603 29.837 37.9309 29.8275C38.1063 29.8133 38.2794 29.8062 38.45 29.8062C39.0379 29.8062 39.5594 29.8797 40.0145 30.0266C40.4744 30.1688 40.8608 30.3751 41.1737 30.6453C41.4866 30.9155 41.7236 31.2474 41.8848 31.6409C42.0507 32.0344 42.1337 32.48 42.1337 32.9778C42.1337 33.5562 42.0389 34.0635 41.8492 34.4996C41.6596 34.9358 41.3941 35.3008 41.0528 35.5948C40.7162 35.8887 40.3108 36.1115 39.8368 36.2632C39.3674 36.4102 38.8507 36.4837 38.2865 36.4837C38.2012 36.4837 38.0589 36.4766 37.8598 36.4624C37.6607 36.4529 37.4426 36.441 37.2056 36.4268C36.9733 36.4126 36.741 36.3983 36.5087 36.3841C36.2764 36.3746 36.0844 36.3699 35.9326 36.3699ZM38.0091 30.7449C37.7437 30.7449 37.4948 30.7543 37.2625 30.7733C37.0302 30.7875 36.8405 30.8112 36.6936 30.8444V35.5094C36.7647 35.5284 36.8382 35.5474 36.914 35.5663C36.9946 35.5805 37.0847 35.5948 37.1842 35.609C37.2838 35.6185 37.4023 35.628 37.5398 35.6374C37.6773 35.6422 37.8432 35.6446 38.0376 35.6446C38.8151 35.6446 39.4101 35.4288 39.8225 34.9974C40.235 34.566 40.4412 33.9331 40.4412 33.0987C40.4412 32.6957 40.382 32.3473 40.2634 32.0533C40.1496 31.7547 39.9861 31.5105 39.7727 31.3209C39.5594 31.1265 39.3034 30.9819 39.0047 30.8871C38.7061 30.7923 38.3742 30.7449 38.0091 30.7449Z" fill="#262727"/>
<ellipse rx="0.404554" ry="6.47286" transform="matrix(-0.758555 -0.651609 -0.651609 0.758555 31.5206 23.407)" fill="#CFAC68"/>
<ellipse rx="0.404554" ry="6.47286" transform="matrix(-0.758555 -0.651609 -0.651609 0.758555 15.0431 39.062)" fill="#CFAC68"/>
<ellipse cx="15.6568" cy="23.407" rx="0.404554" ry="6.47286" transform="rotate(-40.663 15.6568 23.407)" fill="#CFAC68"/>
<ellipse cx="31.2252" cy="39.062" rx="0.404554" ry="6.47286" transform="rotate(-40.663 31.2252 39.062)" fill="#CFAC68"/>
<path d="M21.8459 30.4496V29.8428H22.4527M21.8459 31.6633V32.2701H22.4527M24.2732 30.4496V29.8428H23.6664M24.2732 31.6633V32.2701H23.6664" stroke="#CFAC68" stroke-width="0.404554"/>
</svg>
