<svg width="25" height="31" viewBox="0 0 25 31" fill="none" xmlns="http://www.w3.org/2000/svg">
<path d="M12.0237 15.0296C10.3704 15.0296 9.01777 13.6769 9.01777 12.0237C9.01777 10.3704 10.3704 9.01777 12.0237 9.01777C13.6769 9.01777 15.0296 10.3704 15.0296 12.0237C15.0296 13.6769 13.6769 15.0296 12.0237 15.0296ZM21.0415 12.3243C21.0415 6.86853 17.0586 3.00592 12.0237 3.00592C6.98877 3.00592 3.00592 6.86853 3.00592 12.3243C3.00592 15.8412 5.9367 20.5004 12.0237 26.0613C18.1107 20.5004 21.0415 15.8412 21.0415 12.3243ZM12.0237 0C18.3361 0 24.0474 4.83953 24.0474 12.3243C24.0474 17.3141 20.0345 23.2207 12.0237 30.0592C4.01291 23.2207 0 17.3141 0 12.3243C0 4.83953 5.71125 0 12.0237 0Z" fill="#998359"/>
</svg>
