<svg width="80" height="71" viewBox="0 0 80 71" fill="none" xmlns="http://www.w3.org/2000/svg">
<path d="M41.2558 30.0693C41.0905 30.0336 40.9209 30.0271 40.7534 30.0522C39.0749 29.8568 37.8087 28.4367 37.8058 26.7475C37.8058 25.9379 37.1495 25.2816 36.34 25.2816C35.5304 25.2816 34.8741 25.9379 34.8741 26.7475C34.8784 29.5683 36.7651 32.0391 39.485 32.7857V34.2516C39.485 35.0611 40.1414 35.7175 40.9509 35.7175C41.7604 35.7175 42.4168 35.0611 42.4168 34.2516V32.8744C45.5562 32.2174 47.6898 29.2935 47.3599 26.1033C47.0292 22.9131 44.3415 20.4888 41.1342 20.4881C39.2961 20.4881 37.8058 18.9979 37.8058 17.1598C37.8058 15.3217 39.2961 13.8315 41.1342 13.8315C42.9722 13.8315 44.4625 15.3217 44.4625 17.1598C44.4625 17.9693 45.1188 18.6257 45.9284 18.6257C46.7379 18.6257 47.3942 17.9693 47.3942 17.1598C47.3899 14.198 45.3149 11.6434 42.4168 11.0321V9.69794C42.4168 8.88841 41.7604 8.23206 40.9509 8.23206C40.1414 8.23206 39.485 8.88841 39.485 9.69794V11.1216C36.4602 11.9476 34.5133 14.8844 34.9299 17.9922C35.3465 21.1001 37.9984 23.4199 41.1342 23.4192C42.9479 23.4192 44.4274 24.8715 44.4603 26.6845C44.494 28.4975 43.0682 30.0035 41.2558 30.0693Z" fill="#CFAC68"/>
<path d="M19.8773 22.0664C19.8773 33.8064 29.3942 43.3232 41.1341 43.3232C52.8741 43.3232 62.3909 33.8064 62.3909 22.0664C62.3909 10.3264 52.8741 0.80957 41.1341 0.80957C29.3999 0.822454 19.8909 10.3321 19.8773 22.0664ZM41.1341 3.74135C51.2551 3.74135 59.4592 11.9455 59.4592 22.0664C59.4592 32.1873 51.2551 40.3914 41.1341 40.3914C31.0132 40.3914 22.8091 32.1873 22.8091 22.0664C22.8206 11.9505 31.0182 3.7528 41.1341 3.74135Z" fill="#CFAC68"/>
<path d="M69.6173 46.9371L58.1343 52.3626C56.5489 49.4136 53.5076 47.5369 50.1607 47.4424L39.5602 47.1511C37.8817 47.1031 36.2347 46.678 34.7424 45.9071L33.6637 45.3481C28.1409 42.4693 21.558 42.4764 16.0408 45.3667L16.1081 42.9231C16.1303 42.1135 15.4926 41.4393 14.683 41.4171L3.059 41.0972C2.24947 41.075 1.57593 41.7127 1.55374 42.5222L0.851575 68.0307C0.829386 68.8402 1.46713 69.5145 2.27666 69.5367L13.9007 69.8566H13.9408C14.7353 69.8566 15.3852 69.2246 15.4067 68.4308L15.4403 67.2104L18.4601 65.5935C19.6454 64.9558 21.0312 64.804 22.326 65.1705L40.359 70.2317C40.3905 70.241 40.422 70.2481 40.4542 70.2553C41.7576 70.528 43.086 70.6647 44.4174 70.664C47.2375 70.6654 50.0247 70.0577 52.5878 68.881C52.6508 68.8524 52.7117 68.8188 52.7696 68.7808L78.9158 51.8687C79.5672 51.4471 79.7776 50.5918 79.3961 49.9161C77.4549 46.4718 73.1496 45.1598 69.6173 46.9371ZM3.82272 66.6464L4.444 44.0683L13.137 44.3074L12.5157 66.8862L3.82272 66.6464ZM51.2672 66.2628C48.0828 67.7 44.5262 68.0965 41.1034 67.3972L23.119 62.3489C21.0949 61.7771 18.9282 62.014 17.0765 63.0096L15.5334 63.8363L15.9464 48.8246C20.8365 45.5721 27.108 45.2379 32.3159 47.9513L33.3946 48.5103C35.2799 49.4838 37.3592 50.0206 39.48 50.0822L50.0812 50.3735C53.0588 50.4594 55.5876 52.5795 56.1917 55.4969L40.4012 55.061C39.5917 55.0388 38.9181 55.6773 38.8952 56.4861C38.873 57.2956 39.5115 57.9699 40.3203 57.9921L57.7463 58.4716H57.7871C58.5809 58.4709 59.2301 57.8389 59.2516 57.0458C59.2695 56.4088 59.2223 55.7711 59.1099 55.1441L70.8878 49.579C70.8993 49.574 70.9107 49.5682 70.9222 49.5625C72.5928 48.7172 74.6126 48.9999 75.9869 50.2718L51.2672 66.2628Z" fill="#CFAC68"/>
</svg>
