<svg width="78" height="78" viewBox="0 0 78 78" fill="none" xmlns="http://www.w3.org/2000/svg">
<g clip-path="url(#clip0)">
<path d="M34.8745 22.734L34.1323 13.8273C34.0838 13.2448 33.597 12.7968 33.0124 12.7968H31.8888V11.6729C31.8888 9.81383 30.3765 8.30151 28.5174 8.30151C26.6584 8.30151 25.1461 9.81383 25.1461 11.6729V12.7968H24.0224C23.4451 12.7968 22.9617 13.2342 22.9042 13.8087L22.005 22.799C21.9734 23.115 22.0769 23.4295 22.29 23.6649C22.5031 23.9003 22.8057 24.0346 23.1233 24.0346H33.7615C33.7625 24.0346 33.7634 24.0346 33.7645 24.0346C34.3851 24.0346 34.8883 23.5314 34.8883 22.9108C34.8883 22.8507 34.8835 22.7915 34.8745 22.734ZM27.3937 11.6729C27.3937 11.0531 27.8977 10.5491 28.5174 10.5491C29.1372 10.5491 29.6412 11.0531 29.6412 11.6729V12.7968H27.3937V11.6729ZM24.365 21.7871L25.0394 15.0444H31.9784L32.5402 21.7871H24.365Z" fill="#CFAC68"/>
<path d="M64.6951 10.8113C64.6924 10.7839 64.6876 10.7572 64.6829 10.7305C64.6813 10.7211 64.6804 10.7115 64.6786 10.7022C64.6723 10.6704 64.6641 10.6393 64.6549 10.6084C64.6537 10.6044 64.653 10.6 64.6518 10.596C64.6422 10.5645 64.6308 10.5338 64.6187 10.5035C64.6173 10.4999 64.6161 10.4963 64.6148 10.4927C64.6028 10.4638 64.5891 10.4356 64.5748 10.4081C64.5722 10.4033 64.5703 10.3982 64.5677 10.3934C64.5539 10.3678 64.5386 10.3429 64.5229 10.3185C64.5187 10.312 64.5153 10.3053 64.5109 10.2988C64.4952 10.2755 64.4781 10.2531 64.4607 10.231C64.4555 10.2242 64.4508 10.217 64.4454 10.2104C64.4221 10.1821 64.3975 10.1547 64.3714 10.1288L55.382 1.13892C55.3561 1.11299 55.3288 1.08827 55.3004 1.0649C55.293 1.0589 55.2851 1.05381 55.2777 1.04796C55.2563 1.03118 55.2347 1.01455 55.2121 0.999416C55.205 0.994621 55.1976 0.990725 55.1904 0.98623C55.1665 0.971096 55.1426 0.956112 55.1177 0.942777C55.1122 0.93978 55.1065 0.937532 55.1009 0.934685C55.0738 0.92075 55.0464 0.907265 55.0182 0.895578C55.0142 0.893929 55.01 0.892731 55.0059 0.891232C54.9761 0.879245 54.9458 0.868007 54.9148 0.858567C54.9103 0.857219 54.9057 0.85632 54.9012 0.855121C54.8706 0.846281 54.8399 0.83804 54.8084 0.831746C54.799 0.829799 54.7892 0.829049 54.7798 0.827401C54.7533 0.822756 54.7266 0.818111 54.6993 0.815414C54.6622 0.811518 54.6247 0.80957 54.5871 0.80957H14.1328C13.5122 0.80957 13.009 1.31273 13.009 1.93336V69.8814C13.009 70.502 13.5122 71.0052 14.1328 71.0052H39.6052C40.2258 71.0052 40.729 70.502 40.729 69.8814C40.729 69.2607 40.2258 68.7576 39.6052 68.7576H15.2566V3.05715H53.4633V10.9234C53.4633 11.544 53.9665 12.0472 54.5871 12.0472H62.453V68.7576H56.0874C55.4668 68.7576 54.9637 69.2607 54.9637 69.8814C54.9637 70.502 55.4668 71.0052 56.0874 71.0052H63.5768C64.1975 71.0052 64.7006 70.502 64.7006 69.8814V10.9234C64.7006 10.8858 64.6988 10.8483 64.6951 10.8113ZM55.7109 9.79958V4.64648L60.8639 9.79958H55.7109Z" fill="#CFAC68"/>
<path d="M54.5871 32.799H23.1228C22.5022 32.799 21.9991 33.3022 21.9991 33.9228C21.9991 34.5435 22.5022 35.0466 23.1228 35.0466H54.5871C55.2078 35.0466 55.7109 34.5435 55.7109 33.9228C55.7109 33.3022 55.2078 32.799 54.5871 32.799Z" fill="#CFAC68"/>
<path d="M54.5871 38.794H23.1228C22.5022 38.794 21.9991 39.2971 21.9991 39.9178C21.9991 40.5384 22.5022 41.0416 23.1228 41.0416H54.5871C55.2078 41.0416 55.7109 40.5384 55.7109 39.9178C55.7109 39.2971 55.2078 38.794 54.5871 38.794Z" fill="#CFAC68"/>
<path d="M54.5871 44.7873H23.1228C22.5022 44.7873 21.9991 45.2905 21.9991 45.9111C21.9991 46.5317 22.5022 47.0349 23.1228 47.0349H54.5871C55.2078 47.0349 55.7109 46.5317 55.7109 45.9111C55.7109 45.2905 55.2078 44.7873 54.5871 44.7873Z" fill="#CFAC68"/>
<path d="M36.6074 50.7809H23.1228C22.5022 50.7809 21.9991 51.284 21.9991 51.9047C21.9991 52.5253 22.5022 53.0285 23.1228 53.0285H36.6074C37.228 53.0285 37.7312 52.5253 37.7312 51.9047C37.7312 51.284 37.228 50.7809 36.6074 50.7809Z" fill="#CFAC68"/>
<path d="M55.7127 61.6443C55.7127 57.3066 52.1838 53.7778 47.8462 53.7778C43.5085 53.7778 39.9796 57.3066 39.9796 61.6443C39.9796 64.1441 41.1532 66.3737 42.9767 67.8156V76.4031C42.9767 76.4151 42.9781 76.4266 42.9785 76.4386C42.9793 76.4615 42.9799 76.4843 42.982 76.5073C42.9835 76.5233 42.986 76.539 42.9881 76.5549C42.9909 76.5754 42.9936 76.596 42.9975 76.6163C43.0008 76.6334 43.0052 76.6502 43.0092 76.667C43.0137 76.6857 43.0181 76.7044 43.0236 76.7229C43.0289 76.7405 43.035 76.7576 43.0411 76.775C43.0471 76.7921 43.053 76.8093 43.0599 76.8263C43.0672 76.8442 43.0755 76.8615 43.0837 76.879C43.091 76.8946 43.0981 76.9103 43.1062 76.9257C43.1159 76.9442 43.1266 76.9617 43.1372 76.9795C43.1454 76.9933 43.1534 77.0073 43.1622 77.0207C43.1747 77.0396 43.1883 77.0576 43.2018 77.0757C43.2091 77.0855 43.2154 77.0957 43.2231 77.1053C43.2246 77.1072 43.2263 77.1087 43.2278 77.1106C43.253 77.1418 43.2797 77.1716 43.308 77.1998C43.316 77.2077 43.3246 77.2146 43.3329 77.2223C43.3534 77.2416 43.3744 77.2605 43.3964 77.2783C43.4096 77.289 43.4232 77.2985 43.4369 77.3086C43.4553 77.3221 43.4737 77.3353 43.4928 77.3475C43.5071 77.3568 43.5217 77.3655 43.5365 77.3741C43.5564 77.3858 43.5768 77.3965 43.5975 77.407C43.6116 77.4141 43.6257 77.4211 43.6402 77.4276C43.6631 77.4379 43.6867 77.447 43.7103 77.4559C43.7232 77.4607 43.7359 77.4658 43.749 77.47C43.7755 77.4788 43.8028 77.486 43.8302 77.4927C43.8411 77.4954 43.8519 77.4987 43.8629 77.5011C43.8931 77.5077 43.924 77.5124 43.9552 77.5164C43.9639 77.5175 43.9724 77.5194 43.9811 77.5203C44.0178 77.5242 44.0551 77.5262 44.0929 77.5265C44.0957 77.5265 44.0986 77.5269 44.1014 77.5269C44.1026 77.5269 44.1037 77.5266 44.1048 77.5266C44.1597 77.5264 44.2132 77.5211 44.2658 77.5134C44.2772 77.5118 44.2883 77.5103 44.2996 77.5082C44.3531 77.4987 44.4051 77.4855 44.4556 77.4688C44.4649 77.4656 44.4739 77.462 44.483 77.4587C44.5368 77.4392 44.5893 77.4168 44.639 77.3897C44.6408 77.3888 44.6425 77.3874 44.6443 77.3865C44.6967 77.3576 44.746 77.324 44.7928 77.2873C44.7961 77.2848 44.7996 77.2831 44.8029 77.2806L47.8468 74.8455L50.8904 77.2806C50.8936 77.2831 50.897 77.2846 50.9002 77.2872C50.9472 77.324 50.9968 77.3576 51.0493 77.3867C51.0509 77.3876 51.0524 77.3888 51.0541 77.3897C51.1038 77.4169 51.1564 77.4394 51.2103 77.4589C51.2195 77.4622 51.2283 77.4658 51.2375 77.4688C51.288 77.4855 51.3401 77.4987 51.3936 77.5083C51.4048 77.5103 51.4159 77.5118 51.4273 77.5134C51.4801 77.5212 51.5335 77.5264 51.5884 77.5266C51.5896 77.5266 51.5906 77.5269 51.5918 77.5269C51.5945 77.5269 51.5975 77.5265 51.6002 77.5265C51.638 77.5262 51.6753 77.5242 51.7122 77.5203C51.7207 77.5194 51.7291 77.5175 51.7375 77.5164C51.7688 77.5124 51.8 77.5076 51.8302 77.501C51.841 77.4986 51.8516 77.4954 51.8623 77.4927C51.89 77.486 51.9174 77.4787 51.9442 77.4698C51.957 77.4656 51.9694 77.4605 51.9822 77.456C52.0061 77.447 52.0298 77.4377 52.053 77.4274C52.0673 77.4211 52.0812 77.4141 52.0953 77.407C52.1161 77.3965 52.1366 77.3856 52.1567 77.3739C52.1714 77.3654 52.1859 77.3567 52.2003 77.3474C52.2194 77.335 52.2379 77.3219 52.2562 77.3084C52.2698 77.2984 52.2835 77.2888 52.2968 77.2782C52.3188 77.2605 52.3397 77.2415 52.3602 77.2223C52.3684 77.2146 52.3771 77.2076 52.3851 77.1997C52.4135 77.1715 52.4401 77.1415 52.4654 77.1103C52.4669 77.1086 52.4687 77.1071 52.4702 77.1051C52.4778 77.0957 52.484 77.0855 52.4913 77.0759C52.5049 77.0578 52.5186 77.0396 52.5312 77.0206C52.54 77.0071 52.5478 76.9932 52.5562 76.9795C52.5668 76.9617 52.5776 76.944 52.5874 76.9256C52.5954 76.9103 52.6025 76.8947 52.6097 76.8791C52.6179 76.8616 52.6262 76.8442 52.6335 76.8261C52.6404 76.8092 52.6462 76.7919 52.6522 76.7749C52.6584 76.7576 52.6645 76.7404 52.6698 76.7227C52.6753 76.7041 52.6797 76.6854 52.6842 76.6667C52.6882 76.6499 52.6925 76.6333 52.6958 76.6162C52.6997 76.5957 52.7024 76.5751 52.7053 76.5546C52.7074 76.5389 52.7099 76.5231 52.7114 76.5071C52.7135 76.4842 52.7141 76.4612 52.7149 76.4383C52.7153 76.4265 52.7167 76.4149 52.7167 76.403L52.7164 67.8156C54.5392 66.3737 55.7127 64.1441 55.7127 61.6443ZM48.5646 72.5419C48.5646 72.5418 48.5645 72.5418 48.5645 72.5416L48.5486 72.5289C48.5404 72.5224 48.5317 72.5171 48.5234 72.5108C48.5035 72.4956 48.4836 72.4808 48.4629 72.4672C48.4508 72.4592 48.4383 72.4522 48.4259 72.4447C48.4069 72.4333 48.388 72.4218 48.3684 72.4116C48.3529 72.4035 48.3372 72.3963 48.3215 72.3891C48.3045 72.3811 48.2876 72.3731 48.2704 72.3662C48.2521 72.3587 48.2335 72.3524 48.2151 72.3459C48.1996 72.3405 48.1842 72.335 48.1686 72.3304C48.149 72.3245 48.1292 72.3197 48.1093 72.3149C48.094 72.3113 48.0786 72.3074 48.0631 72.3043C48.0437 72.3005 48.0242 72.2977 48.0045 72.295C47.9881 72.2926 47.9714 72.2902 47.9548 72.2885C47.9368 72.2868 47.919 72.286 47.901 72.2851C47.8823 72.2842 47.8637 72.2833 47.845 72.2833C47.8291 72.2833 47.8134 72.2842 47.7975 72.285C47.7768 72.2858 47.7561 72.2867 47.7354 72.2888C47.7214 72.2902 47.7074 72.2923 47.6935 72.2942C47.6715 72.2972 47.6494 72.3005 47.6276 72.3047C47.6145 72.3074 47.6015 72.3106 47.5884 72.3137C47.5664 72.319 47.5445 72.3242 47.5227 72.3308C47.5089 72.335 47.4954 72.3398 47.4818 72.3446C47.4615 72.3515 47.4413 72.3585 47.4214 72.3666C47.4053 72.3731 47.3898 72.3807 47.374 72.3879C47.3572 72.3957 47.3405 72.4033 47.3238 72.412C47.305 72.4219 47.2865 72.4331 47.2679 72.4442C47.2552 72.452 47.2423 72.4592 47.2297 72.4675C47.2091 72.4811 47.1891 72.4961 47.169 72.5112C47.1608 72.5175 47.1523 72.5227 47.1442 72.5292L47.1286 72.5418C47.1284 72.5419 47.1281 72.5421 47.1278 72.5424L45.2243 74.0653V69.0604C46.045 69.3514 46.9271 69.5114 47.8462 69.5114C48.7653 69.5114 49.6474 69.3516 50.4682 69.0604L50.4683 74.0649L48.5646 72.5419ZM47.8462 67.2633C44.7478 67.2633 42.2272 64.7427 42.2272 61.6443C42.2272 58.546 44.7478 56.0254 47.8462 56.0254C50.9445 56.0254 53.4651 58.546 53.4651 61.6443C53.4651 64.7427 50.9445 67.2633 47.8462 67.2633Z" fill="#CFAC68"/>
<path d="M47.8463 58.2728C45.9873 58.2728 44.4749 59.7851 44.4749 61.6442C44.4749 63.5032 45.9873 65.0155 47.8463 65.0155C49.7054 65.0155 51.2177 63.5032 51.2177 61.6442C51.2177 59.7851 49.7054 58.2728 47.8463 58.2728ZM47.8463 62.768C47.2266 62.768 46.7225 62.2639 46.7225 61.6442C46.7225 61.0244 47.2266 60.5204 47.8463 60.5204C48.466 60.5204 48.9701 61.0244 48.9701 61.6442C48.9701 62.2639 48.466 62.768 47.8463 62.768Z" fill="#CFAC68"/>
</g>
<defs>
<clipPath id="clip0">
<rect width="76.7173" height="76.7173" fill="white" transform="translate(0.496155 0.809631)"/>
</clipPath>
</defs>
</svg>
