<svg width="72" height="71" viewBox="0 0 72 71" fill="none" xmlns="http://www.w3.org/2000/svg">
<path d="M69.9469 24.1991H62.2284C59.4724 24.202 56.7675 23.4544 54.4042 22.0364C52.0408 20.6184 50.1083 18.5836 48.8139 16.1504L47.383 13.4674C45.9399 10.7553 43.5725 8.65027 40.7101 7.53438V5.48752C40.7101 4.24686 40.2173 3.05703 39.34 2.17975C38.4627 1.30248 37.2729 0.809631 36.0323 0.809631C34.7916 0.809631 33.6018 1.30248 32.7245 2.17975C31.8472 3.05703 31.3544 4.24686 31.3544 5.48752V7.53438C28.492 8.65028 26.1245 10.7553 24.6814 13.4674L23.2507 16.1504C21.9563 18.5836 20.0237 20.6184 17.6604 22.0364C15.297 23.4544 12.5922 24.202 9.83607 24.1991H2.11759C1.80743 24.1991 1.50997 24.3223 1.29065 24.5416C1.07134 24.7609 0.948123 25.0584 0.94812 25.3685V30.0464C0.948123 30.3566 1.07134 30.654 1.29065 30.8733C1.50997 31.0927 1.80743 31.2159 2.11759 31.2159H9.80367L5.9763 41.7411H4.45653C4.14637 41.7411 3.84891 41.8643 3.6296 42.0837C3.41028 42.303 3.28707 42.6004 3.28706 42.9106C3.28706 45.3919 4.27276 47.7716 6.0273 49.5261C7.78185 51.2807 10.1615 52.2664 12.6428 52.2664C15.1241 52.2664 17.5038 51.2807 19.2584 49.5261C21.0129 47.7716 21.9986 45.3919 21.9986 42.9106C21.9986 42.6004 21.8754 42.303 21.6561 42.0837C21.4367 41.8643 21.1393 41.7411 20.8291 41.7411H19.3094L15.482 31.2159H18.3346C21.7339 31.2163 25.0178 29.9824 27.5758 27.7436L30.6535 25.0505C30.877 24.8558 31.111 24.6734 31.3544 24.5041V55.4987L29.4621 59.2832H26.6765C26.4949 59.2832 26.3159 59.3255 26.1535 59.4067C25.9911 59.4879 25.8498 59.6058 25.7409 59.751L22.5834 63.9611H17.3207C17.0106 63.9611 16.7131 64.0843 16.4938 64.3036C16.2745 64.5229 16.1512 64.8204 16.1512 65.1305V69.8084C16.1512 70.1186 16.2745 70.416 16.4938 70.6354C16.7131 70.8547 17.0106 70.9779 17.3207 70.9779H54.7438C55.054 70.9779 55.3514 70.8547 55.5707 70.6354C55.79 70.416 55.9133 70.1186 55.9133 69.8084V65.1305C55.9133 64.8204 55.79 64.5229 55.5707 64.3036C55.3514 64.0843 55.054 63.9611 54.7438 63.9611H49.4811L46.3236 59.751C46.2147 59.6058 46.0734 59.4879 45.911 59.4067C45.7486 59.3255 45.5696 59.2832 45.388 59.2832H42.6024L40.7101 55.4987V24.5041C40.9535 24.6734 41.1875 24.8558 41.411 25.0505H41.4109L44.4887 27.7436C47.0467 29.9824 50.3306 31.2163 53.7299 31.2159H56.5825L52.7551 41.7411H51.2354C50.9252 41.7411 50.6278 41.8643 50.4084 42.0837C50.1891 42.303 50.0659 42.6004 50.0659 42.9106C50.0659 45.3919 51.0516 47.7716 52.8062 49.5261C54.5607 51.2807 56.9404 52.2664 59.4217 52.2664C61.903 52.2664 64.2827 51.2807 66.0372 49.5261C67.7917 47.7716 68.7774 45.3919 68.7774 42.9106C68.7774 42.6004 68.6542 42.303 68.4349 42.0837C68.2156 41.8643 67.9181 41.7411 67.608 41.7411H66.0882L62.2608 31.2159H69.9469C70.2571 31.2159 70.5545 31.0927 70.7739 30.8733C70.9932 30.654 71.1164 30.3566 71.1164 30.0464V25.3685C71.1164 25.0584 70.9932 24.7609 70.7739 24.5416C70.5545 24.3223 70.2571 24.1991 69.9469 24.1991ZM33.6933 5.48752C33.6933 4.86719 33.9397 4.27227 34.3784 3.83363C34.817 3.395 35.4119 3.14857 36.0323 3.14857C36.6526 3.14857 37.2475 3.395 37.6861 3.83363C38.1248 4.27227 38.3712 4.86719 38.3712 5.48752V6.87155C36.825 6.58547 35.2395 6.58547 33.6933 6.87155V5.48752ZM12.6428 49.9274C10.9851 49.9253 9.3815 49.3373 8.11534 48.2673C6.84918 47.1973 6.00198 45.7142 5.72344 44.0801H19.5622C19.2837 45.7142 18.4365 47.1973 17.1703 48.2673C15.9042 49.3373 14.3005 49.9253 12.6428 49.9274ZM16.8205 41.7411H8.46517L12.2925 31.2159H12.9931L16.8205 41.7411ZM53.5743 68.639H18.4902V66.3H53.5743V68.639ZM46.5575 63.9611H25.507L27.2612 61.6221H44.8033L46.5575 63.9611ZM38.4947 56.2978L39.9874 59.2832H32.0772L33.5698 56.2978C33.651 56.1354 33.6933 55.9564 33.6933 55.7748V23.3736C35.2189 22.9149 36.8456 22.9149 38.3712 23.3736V55.7748C38.3712 55.9564 38.4135 56.1354 38.4947 56.2978ZM59.4217 49.9274C57.764 49.9253 56.1603 49.3373 54.8942 48.2673C53.628 47.1973 52.7808 45.7142 52.5023 44.0801H66.3411C66.0625 45.7142 65.2153 47.1973 63.9492 48.2673C62.683 49.3373 61.0794 49.9253 59.4217 49.9274ZM63.5993 41.7411H55.244L59.0714 31.2159H59.772L63.5993 41.7411ZM68.7774 28.8769H53.7299C50.8971 28.8773 48.1606 27.8491 46.0289 25.9834L42.9511 23.2903H42.9511C41.0357 21.6144 38.5772 20.6906 36.0322 20.6906C33.4872 20.6906 31.0287 21.6144 29.1134 23.2903L26.0356 25.9834C23.9039 27.8491 21.1674 28.8773 18.3346 28.8769H3.28706V26.538H9.83607C13.0162 26.5415 16.1372 25.6788 18.8641 24.0427C21.5911 22.4065 23.8209 20.0586 25.3144 17.251L26.7452 14.568C27.643 12.8849 28.9812 11.4773 30.617 10.4958C32.2528 9.51437 34.1246 8.99593 36.0322 8.99593C37.9398 8.99593 39.8116 9.51437 41.4474 10.4958C43.0832 11.4773 44.4215 12.8849 45.3192 14.568L46.7501 17.251C48.2436 20.0586 50.4735 22.4065 53.2004 24.0427C55.9273 25.6788 59.0483 26.5415 62.2284 26.538H68.7774V28.8769Z" fill="#CFAC68"/>
<path d="M36.0322 11.3348C35.3383 11.3348 34.66 11.5406 34.083 11.9261C33.5061 12.3116 33.0564 12.8596 32.7909 13.5006C32.5253 14.1417 32.4558 14.8471 32.5912 15.5277C32.7266 16.2083 33.0607 16.8334 33.5514 17.3241C34.042 17.8147 34.6672 18.1489 35.3477 18.2843C36.0283 18.4196 36.7337 18.3501 37.3748 18.0846C38.0159 17.8191 38.5638 17.3694 38.9493 16.7924C39.3349 16.2155 39.5406 15.5372 39.5406 14.8433C39.5396 13.9131 39.1696 13.0213 38.5119 12.3636C37.8541 11.7059 36.9624 11.3359 36.0322 11.3348ZM36.0322 16.0127C35.8009 16.0127 35.5748 15.9441 35.3825 15.8156C35.1902 15.6871 35.0403 15.5045 34.9518 15.2908C34.8632 15.0771 34.8401 14.842 34.8852 14.6151C34.9303 14.3882 35.0417 14.1799 35.2053 14.0163C35.3688 13.8528 35.5772 13.7414 35.8041 13.6963C36.0309 13.6511 36.266 13.6743 36.4797 13.7628C36.6934 13.8513 36.8761 14.0012 37.0046 14.1935C37.1331 14.3858 37.2017 14.612 37.2017 14.8433C37.2013 15.1533 37.078 15.4506 36.8588 15.6698C36.6395 15.889 36.3423 16.0124 36.0322 16.0127Z" fill="#CFAC68"/>
</svg>
