<svg width="27" height="21" viewBox="0 0 27 21" fill="none" xmlns="http://www.w3.org/2000/svg">
<path d="M4.25419 9.1304e-09H21.9255C23.0121 -7.11389e-05 24.0576 0.415673 24.8474 1.16195C25.6373 1.90822 26.1116 2.92845 26.1731 4.01334L26.1797 4.25419V16.6895C26.1797 17.7762 25.764 18.8216 25.0177 19.6115C24.2714 20.4013 23.2512 20.8757 22.1663 20.9372L21.9255 20.9437H4.25419C3.16756 20.9438 2.12209 20.528 1.33224 19.7818C0.542399 19.0355 0.0680654 18.0153 0.00654507 16.9304L9.13039e-09 16.6895V4.25419C-7.11389e-05 3.16756 0.415673 2.12209 1.16195 1.33224C1.90822 0.542399 2.92845 0.0680654 4.01334 0.00654507L4.25419 9.1304e-09H21.9255H4.25419ZM24.2162 7.03316L13.548 12.6487C13.4275 12.7123 13.2951 12.7502 13.1592 12.7599C13.0233 12.7696 12.8869 12.7509 12.7587 12.705L12.633 12.65L1.96347 7.03447V16.6895C1.9635 17.2644 2.17968 17.8183 2.56911 18.2412C2.95855 18.6641 3.49276 18.9251 4.0657 18.9724L4.25419 18.9802H21.9255C22.5006 18.9802 23.0546 18.7638 23.4775 18.3741C23.9005 17.9844 24.1613 17.4499 24.2083 16.8767L24.2162 16.6895V7.03316ZM21.9255 1.96347H4.25419C3.6793 1.9635 3.12543 2.17968 2.70254 2.56911C2.27964 2.95855 2.01863 3.49276 1.97133 4.0657L1.96347 4.25419V4.81575L13.0898 10.6708L24.2162 4.81444V4.25419C24.2161 3.67909 23.9998 3.12505 23.6101 2.70212C23.2204 2.27919 22.6858 2.01832 22.1126 1.97133L21.9255 1.96347Z" fill="#998359"/>
</svg>
