<svg width="27" height="27" viewBox="0 0 27 27" fill="none" xmlns="http://www.w3.org/2000/svg">
<path d="M14.3988 2.61797C16.829 2.61797 19.1596 3.58334 20.8779 5.30171C22.5963 7.02008 23.5617 9.3507 23.5617 11.7808C23.5617 12.128 23.6996 12.461 23.9451 12.7064C24.1906 12.9519 24.5235 13.0898 24.8707 13.0898C25.2178 13.0898 25.5508 12.9519 25.7963 12.7064C26.0417 12.461 26.1796 12.128 26.1796 11.7808C26.1796 8.65637 24.9385 5.65987 22.7291 3.45053C20.5198 1.24119 17.5233 0 14.3988 0C14.0516 0 13.7187 0.13791 13.4732 0.383392C13.2277 0.628874 13.0898 0.961819 13.0898 1.30898C13.0898 1.65615 13.2277 1.98909 13.4732 2.23457C13.7187 2.48006 14.0516 2.61797 14.3988 2.61797ZM25.8524 18.2079C25.7804 17.9978 25.6561 17.8095 25.4912 17.6606C25.3264 17.5118 25.1263 17.4073 24.9099 17.3571L17.056 15.5638C16.8429 15.5155 16.621 15.5213 16.4106 15.5807C16.2002 15.6402 16.0081 15.7514 15.8518 15.9041C15.6685 16.0743 15.6554 16.0874 14.8046 17.7105C11.9814 16.4096 9.71919 14.1381 8.42985 11.3096C10.0923 10.4719 10.1053 10.4719 10.2755 10.2755C10.4283 10.1192 10.5395 9.92704 10.5989 9.71669C10.6584 9.50633 10.6642 9.28443 10.6158 9.07125L8.82254 1.30898C8.77234 1.0926 8.6679 0.892557 8.51905 0.727679C8.3702 0.5628 8.18184 0.438512 7.9717 0.366515C7.66601 0.257332 7.35034 0.178415 7.02924 0.130898C6.69839 0.0541856 6.36078 0.0103401 6.02132 0C4.42437 0 2.89282 0.634387 1.7636 1.7636C0.634387 2.89282 0 4.42437 0 6.02132C0.00692703 11.3655 2.13297 16.4888 5.91189 20.2678C9.69081 24.0467 14.8141 26.1727 20.1583 26.1797C20.9491 26.1797 21.732 26.0239 22.4626 25.7213C23.1931 25.4187 23.8569 24.9752 24.416 24.416C24.9752 23.8569 25.4187 23.1931 25.7213 22.4626C26.0239 21.732 26.1796 20.9491 26.1796 20.1583C26.1801 19.8252 26.1538 19.4925 26.1011 19.1635C26.0461 18.8384 25.9629 18.5186 25.8524 18.2079ZM20.1583 23.5617C15.5074 23.5582 11.048 21.7091 7.75925 18.4204C4.47054 15.1317 2.62143 10.6723 2.61796 6.02132C2.62141 5.11976 2.98109 4.2561 3.61859 3.61859C4.2561 2.98109 5.11975 2.62141 6.02132 2.61797H6.45328L7.85389 8.69164L7.14704 9.05816C6.02132 9.6472 5.13121 10.1184 5.60244 11.1394C6.3698 13.3118 7.61143 15.2859 9.23714 16.9184C10.8628 18.5509 12.8318 19.8008 15.0009 20.5772C16.1005 21.0223 16.5324 20.1976 17.1215 19.0588L17.5011 18.3388L23.5617 19.7264V20.1583C23.5582 21.0599 23.1986 21.9235 22.5611 22.5611C21.9235 23.1986 21.0599 23.5582 20.1583 23.5617Z" fill="#998359"/>
</svg>
