<svg width="47" height="26" viewBox="0 0 47 26" fill="none" xmlns="http://www.w3.org/2000/svg">
<path fill-rule="evenodd" clip-rule="evenodd" d="M45.5105 2.39016C45.8266 1.43286 45.5105 0.728027 43.997 0.728027H38.9994C37.7276 0.728027 37.1412 1.33643 36.8233 2.00794C36.8233 2.00794 34.2816 7.61152 30.6815 11.2514C29.5163 12.3069 28.9871 12.6418 28.3512 12.6418C28.0332 12.6418 27.5554 12.3069 27.5554 11.3478V2.39016C27.5554 1.23999 27.2051 0.728027 26.1465 0.728027H18.2874C17.4935 0.728027 17.0157 1.26103 17.0157 1.76774C17.0157 2.85654 18.8167 3.10902 19.0014 6.1738V12.8329C19.0014 14.2934 18.7101 14.5581 18.0742 14.5581C16.3798 14.5581 12.258 8.92825 9.81152 2.4866C9.33747 1.23298 8.8577 0.728027 7.58022 0.728027H2.57882C1.15093 0.728027 0.865356 1.33643 0.865356 2.00794C0.865356 3.2037 2.55978 9.14391 8.75679 17.0005C12.8881 22.3656 18.7044 25.2743 24.0028 25.2743C27.1803 25.2743 27.5725 24.6291 27.5725 23.5158V19.4604C27.5725 18.1682 27.8733 17.9104 28.8804 17.9104C29.6229 17.9104 30.8928 18.2471 33.859 20.8332C37.2478 23.8997 37.8057 25.2743 39.7133 25.2743H44.7109C46.1388 25.2743 46.8546 24.6291 46.4434 23.3527C45.9903 22.0833 44.372 20.2406 42.2264 18.0542C41.0612 16.8094 39.3135 15.4681 38.7823 14.7966C38.0417 13.9357 38.2531 13.5517 38.7823 12.7855C38.7823 12.7855 44.8746 5.02539 45.5086 2.39016H45.5105Z" fill="#CFAC68"/>
</svg>
