<svg width="31" height="31" viewBox="0 0 31 31" fill="none" xmlns="http://www.w3.org/2000/svg">
<path d="M15.0296 0C6.74228 0 0 6.74228 0 15.0296C0 23.3169 6.74228 30.0592 15.0296 30.0592C23.3169 30.0592 30.0592 23.3169 30.0592 15.0296C30.0592 6.74228 23.3169 0 15.0296 0ZM15.0296 27.0533C8.40005 27.0533 3.00592 21.6592 3.00592 15.0296C3.00592 8.40005 8.40005 3.00592 15.0296 3.00592C21.6592 3.00592 27.0533 8.40005 27.0533 15.0296C27.0533 21.6592 21.6592 27.0533 15.0296 27.0533Z" fill="#998359"/>
<path d="M16.5326 7.51483H13.5267V15.6519L18.4759 20.6011L20.6011 18.4759L16.5326 14.4074V7.51483Z" fill="#998359"/>
</svg>
